<?xml version="1.0" encoding="UTF-8" standalone="no"?>
<!-- Created with Inkscape (http://www.inkscape.org/) -->

<svg
   xmlns:dc="http://purl.org/dc/elements/1.1/"
   xmlns:cc="http://creativecommons.org/ns#"
   xmlns:rdf="http://www.w3.org/1999/02/22-rdf-syntax-ns#"
   xmlns:svg="http://www.w3.org/2000/svg"
   xmlns="http://www.w3.org/2000/svg"
   xmlns:xlink="http://www.w3.org/1999/xlink"
   xmlns:sodipodi="http://sodipodi.sourceforge.net/DTD/sodipodi-0.dtd"
   xmlns:inkscape="http://www.inkscape.org/namespaces/inkscape"
   width="48"
   height="48"
   id="svg2985"
   version="1.1"
   inkscape:version="0.48.3.1 r9886"
   sodipodi:docname="appearance-settings-font-dark_48.svg"
   inkscape:export-filename="/media/acw-02/frank-souza/projetos/icones/utt/icons/36/appearance-settings-font-dark_48.png"
   inkscape:export-xdpi="90"
   inkscape:export-ydpi="90">
  <defs
     id="defs2987">
    <linearGradient
       id="linearGradient3885">
      <stop
         style="stop-color:#9a978a;stop-opacity:1"
         offset="0"
         id="stop3887" />
      <stop
         style="stop-color:#52504d;stop-opacity:1"
         offset="1"
         id="stop3889" />
    </linearGradient>
    <linearGradient
       id="linearGradient3025">
      <stop
         style="stop-color:#ffffff;stop-opacity:1"
         offset="0"
         id="stop3027" />
      <stop
         style="stop-color:#bebeb9;stop-opacity:1"
         offset="1"
         id="stop3029" />
    </linearGradient>
    <linearGradient
       id="linearGradient3927-5"
       inkscape:collect="always">
      <stop
         id="stop3929-2"
         offset="0"
         style="stop-color:#eaeaea;stop-opacity:1" />
      <stop
         style="stop-color:#a4a4a4;stop-opacity:1"
         offset="0.17647059"
         id="stop3931-3" />
      <stop
         style="stop-color:#bcbcbc;stop-opacity:1"
         offset="0.34482759"
         id="stop3933-0" />
      <stop
         style="stop-color:#929292;stop-opacity:1"
         offset="0.51724136"
         id="stop3935-3" />
      <stop
         id="stop3937-3"
         offset="0.67647058"
         style="stop-color:#b9b9b9;stop-opacity:1" />
      <stop
         style="stop-color:#959595;stop-opacity:1"
         offset="0.82758623"
         id="stop3939-5" />
      <stop
         id="stop3941-0"
         offset="1"
         style="stop-color:#e3e3e3;stop-opacity:1" />
    </linearGradient>
    <linearGradient
       inkscape:collect="always"
       id="linearGradient4030-7">
      <stop
         style="stop-color:#000000;stop-opacity:1;"
         offset="0"
         id="stop4032-1" />
      <stop
         style="stop-color:#000000;stop-opacity:0;"
         offset="1"
         id="stop4034-3" />
    </linearGradient>
    <linearGradient
       inkscape:collect="always"
       xlink:href="#linearGradient3927-5"
       id="linearGradient3284"
       gradientUnits="userSpaceOnUse"
       gradientTransform="translate(0,17)"
       x1="2"
       y1="5"
       x2="46"
       y2="41" />
    <radialGradient
       inkscape:collect="always"
       xlink:href="#linearGradient3025"
       id="radialGradient3287"
       gradientUnits="userSpaceOnUse"
       gradientTransform="matrix(-2.85572e-8,1.4545455,-1,-1.9633074e-8,44.444444,-10.909094)"
       cx="24"
       cy="20.444443"
       fx="24"
       fy="20.444443"
       r="22" />
    <linearGradient
       inkscape:collect="always"
       xlink:href="#linearGradient4030-7"
       id="linearGradient3291"
       gradientUnits="userSpaceOnUse"
       gradientTransform="translate(2,13)"
       x1="6"
       y1="45"
       x2="6"
       y2="46" />
    <linearGradient
       inkscape:collect="always"
       id="linearGradient3981-8">
      <stop
         style="stop-color:#000000;stop-opacity:0.10645724"
         offset="0"
         id="stop3983-8" />
      <stop
         style="stop-color:#000000;stop-opacity:0;"
         offset="1"
         id="stop3985-4" />
    </linearGradient>
    <radialGradient
       r="17"
       fy="26.299978"
       fx="14.749997"
       cy="26.299978"
       cx="14.749997"
       gradientTransform="matrix(1.6938162e-5,0.29411761,-2.0484428,0,79.050224,19.661767)"
       gradientUnits="userSpaceOnUse"
       id="radialGradient3308"
       xlink:href="#linearGradient3981-8"
       inkscape:collect="always" />
    <radialGradient
       inkscape:collect="always"
       xlink:href="#linearGradient3885"
       id="radialGradient3891"
       cx="24"
       cy="-28"
       fx="24"
       fy="-28"
       r="20"
       gradientTransform="matrix(0,1.6,-1,0,-4,-30.4)"
       gradientUnits="userSpaceOnUse" />
  </defs>
  <sodipodi:namedview
     id="base"
     pagecolor="#ffffff"
     bordercolor="#666666"
     borderopacity="1.0"
     inkscape:pageopacity="0"
     inkscape:pageshadow="2"
     inkscape:zoom="15.999999"
     inkscape:cx="20.876884"
     inkscape:cy="28.280001"
     inkscape:current-layer="layer1"
     showgrid="true"
     inkscape:document-units="px"
     inkscape:grid-bbox="true"
     inkscape:window-width="1920"
     inkscape:window-height="1021"
     inkscape:window-x="-4"
     inkscape:window-y="32"
     inkscape:window-maximized="1"
     inkscape:showpageshadow="false"
     showborder="true">
    <inkscape:grid
       type="xygrid"
       id="grid2982"
       empspacing="5"
       visible="true"
       enabled="true"
       snapvisiblegridlinesonly="true" />
  </sodipodi:namedview>
  <metadata
     id="metadata2990">
    <rdf:RDF>
      <cc:Work
         rdf:about="">
        <dc:format>image/svg+xml</dc:format>
        <dc:type
           rdf:resource="http://purl.org/dc/dcmitype/StillImage" />
        <dc:title />
      </cc:Work>
    </rdf:RDF>
  </metadata>
  <g
     id="layer1"
     inkscape:label="Layer 1"
     inkscape:groupmode="layer"
     transform="translate(0,-16)">
    <rect
       style="opacity:0.68499122;fill:url(#linearGradient3291);fill-opacity:1;stroke:none"
       id="rect4020-0"
       width="42"
       height="2"
       x="3"
       y="57"
       rx="1"
       ry="0.9375" />
    <rect
       ry="3"
       rx="3"
       y="20"
       x="2"
       height="36"
       width="44"
       id="rect3943-4"
       style="fill:#ffffff;fill-opacity:1;stroke:none" />
    <rect
       style="fill:url(#radialGradient3287);fill-opacity:1;stroke:none"
       id="rect3977-7"
       width="44"
       height="36"
       x="2"
       y="22"
       rx="3"
       ry="3" />
    <path
       style="fill:url(#linearGradient3284);fill-opacity:1;stroke:none"
       d="m 5,22 c -1.662,0 -3,1.338 -3,3 l 0,30 c 0,1.662 1.338,3 3,3 l 38,0 c 1.662,0 3,-1.338 3,-3 l 0,-30 c 0,-1.662 -1.338,-3 -3,-3 z m 0,2 38,0 c 0.554,0 1,0.446 1,1 l 0,30 c 0,0.554 -0.446,1 -1,1 L 5,56 C 4.446,56 4,55.554 4,55 L 4,25 c 0,-0.554 0.446,-1 1,-1 z"
       id="path3919-9"
       inkscape:connector-curvature="0"
       sodipodi:nodetypes="ssssssssssssssssss" />
    <rect
       style="fill:url(#radialGradient3308);fill-opacity:1;stroke:none"
       id="rect3964-1"
       width="40"
       height="5"
       x="4"
       y="24"
       rx="0"
       ry="0" />
    <path
       style="font-size:21.33503914px;font-style:normal;font-variant:normal;font-weight:bold;font-stretch:normal;line-height:125%;letter-spacing:0px;word-spacing:0px;fill:#42403d;fill-opacity:1;stroke:none;font-family:Ubuntu;-inkscape-font-specification:Ubuntu Bold"
       d="m 32.75,26.65625 c -0.762871,1.1e-5 -1.472553,0.134106 -2.125,0.375 -0.652455,0.240915 -1.215731,0.590737 -1.6875,1.0625 -0.471775,0.461743 -0.853983,1.036195 -1.125,1.71875 -0.271019,0.672534 -0.406251,1.418013 -0.40625,2.28125 -1e-6,1.736528 0.460431,3.087707 1.34375,4.03125 0.893353,0.943545 2.178623,1.40625 3.875,1.40625 0.792972,0 1.49148,-0.05815 2.09375,-0.21875 0.602254,-0.160603 1.074997,-0.361746 1.40625,-0.5625 l -0.65625,-1.875 c -0.130499,0.06023 -0.276906,0.11724 -0.4375,0.1875 -0.160612,0.07027 -0.351717,0.15852 -0.5625,0.21875 -0.2108,0.05019 -0.447738,0.08485 -0.71875,0.125 -0.271024,0.04016 -0.564974,0.0625 -0.90625,0.0625 -0.542042,2e-6 -1.024822,-0.07936 -1.40625,-0.25 C 31.056062,35.038074 30.772151,34.801133 30.53125,34.5 30.300379,34.198871 30.110411,33.8178 30,33.40625 29.899614,32.984671 29.843747,32.544315 29.84375,32.0625 c -3e-6,-0.602257 0.08939,-1.10966 0.25,-1.53125 0.1606,-0.421576 0.364016,-0.770262 0.625,-1.03125 0.271014,-0.27101 0.596213,-0.473289 0.9375,-0.59375 0.351314,-0.120449 0.701137,-0.156241 1.0625,-0.15625 0.54203,9e-6 1.015909,0.03581 1.4375,0.15625 0.431614,0.120461 0.803785,0.266868 1.125,0.4375 l 0.6875,-1.875 C 35.888439,27.418572 35.74317,27.34035 35.5625,27.25 35.381812,27.159671 35.17726,27.08031 34.90625,27 34.635224,26.909671 34.29885,26.81023 33.9375,26.75 33.576135,26.679744 33.191652,26.656261 32.75,26.65625 z m -11.8125,0.125 c -0.491852,10e-6 -1.021604,0.01232 -1.59375,0.0625 -0.572152,0.04016 -1.111942,0.12842 -1.59375,0.21875 l 0,10.09375 c 0.612298,0.13049 1.187886,0.21989 1.75,0.25 0.572146,0.04015 1.146596,0.0625 1.71875,0.0625 1.575914,0 2.769513,-0.291676 3.5625,-0.84375 0.803008,-0.552073 1.218741,-1.374638 1.21875,-2.46875 -9e-6,-0.542033 -0.134104,-1.005875 -0.375,-1.4375 -0.240914,-0.431617 -0.68127,-0.780302 -1.34375,-1.03125 0.803008,-0.481804 1.187491,-1.135613 1.1875,-1.96875 -9e-6,-0.552066 -0.112892,-1.003596 -0.34375,-1.375 -0.220838,-0.381424 -0.535999,-0.706623 -0.9375,-0.9375 C 23.785985,27.175393 23.312104,27.02785 22.75,26.9375 22.19792,26.837135 21.599983,26.781261 20.9375,26.78125 z M 10,26.90625 c -0.3513237,0.722725 -0.7000097,1.455893 -1.03125,2.21875 -0.3212099,0.752836 -0.6587201,1.563089 -1,2.40625 -0.3312463,0.843172 -0.6486817,1.733922 -1,2.6875 -0.3513207,0.953585 -0.7335299,2.000777 -1.125,3.125 l 2.4375,0 c 0.110412,-0.361357 0.2445067,-0.743566 0.375,-1.125 0.1405251,-0.381431 0.2757567,-0.774815 0.40625,-1.15625 l 4.0625,0 0.375,1.15625 c 0.14052,0.381434 0.264577,0.763643 0.375,1.125 l 2.53125,0 c -0.391482,-1.124223 -0.77369,-2.171415 -1.125,-3.125 -0.35133,-0.953578 -0.689976,-1.844328 -1.03125,-2.6875 -0.331252,-0.843161 -0.668764,-1.653414 -1,-2.40625 -0.331252,-0.762857 -0.658724,-1.496025 -1,-2.21875 l -2.25,0 z m 10.65625,1.78125 c 0.230862,-0.01006 0.455491,9e-6 0.65625,0 0.622333,9e-6 1.085038,0.07937 1.40625,0.25 0.321201,0.17065 0.468743,0.453424 0.46875,0.875 -7e-6,0.411553 -0.157588,0.71554 -0.46875,0.90625 C 22.407575,30.899438 21.910209,31.000007 21.1875,31 l -1.15625,0 0,-2.28125 c 0.180675,-0.02007 0.394128,-0.03124 0.625,-0.03125 z M 11.0625,29.25 c 0.06022,0.150574 0.149617,0.364027 0.25,0.625 0.100371,0.260988 0.213254,0.564975 0.34375,0.90625 0.140521,0.341288 0.286928,0.713459 0.4375,1.125 0.150559,0.411551 0.30814,0.860808 0.46875,1.3125 l -2.96875,0 c 0.1605993,-0.451692 0.3181795,-0.900949 0.46875,-1.3125 0.160598,-0.411541 0.307005,-0.783712 0.4375,-1.125 0.130485,-0.341275 0.243368,-0.645262 0.34375,-0.90625 0.100372,-0.260973 0.16856,-0.474426 0.21875,-0.625 z m 8.96875,3.53125 1.46875,0 c 0.672521,5e-6 1.201137,0.101713 1.5625,0.3125 0.361351,0.200759 0.531243,0.549444 0.53125,1.03125 -7e-6,0.542039 -0.193385,0.924248 -0.625,1.125 -0.431627,0.200755 -1.016116,0.281252 -1.71875,0.28125 -0.240909,0 -0.4555,0.01004 -0.65625,0 -0.200758,-0.01004 -0.391863,-0.04242 -0.5625,-0.0625 l 0,-2.6875 z"
       id="path3067"
       inkscape:connector-curvature="0" />
    <rect
       style="opacity:1;fill:url(#radialGradient3891);fill-opacity:1;stroke:none;stroke-width:2;stroke-miterlimit:4;stroke-opacity:1;stroke-dasharray:none"
       id="rect3883"
       width="40"
       height="16"
       x="4"
       y="24"
       transform="translate(0,16)"
       rx="0"
       ry="0" />
    <path
       style="font-size:18.21892929px;font-style:italic;font-variant:normal;font-weight:normal;font-stretch:normal;line-height:125%;letter-spacing:0px;word-spacing:0px;fill:#ececec;fill-opacity:1;stroke:none;font-family:Ubuntu Mono;-inkscape-font-specification:Ubuntu Mono Italic"
       d="m 29.464993,41.73285 -1.360502,0.22675 -2.522598,10.543892 c 0.254972,0.159358 0.563509,0.248038 0.935345,0.311781 0.371834,0.07437 0.705185,0.113376 0.992033,0.113376 0.860529,0 1.601723,-0.138313 2.23916,-0.425157 0.64805,-0.286844 1.190635,-0.655677 1.615596,-1.133751 0.424948,-0.478073 0.733484,-1.027754 0.935346,-1.643941 0.212469,-0.616181 0.340117,-1.268694 0.340125,-1.927378 -8e-6,-0.37183 -0.06383,-0.701654 -0.170063,-1.020376 -0.09562,-0.31871 -0.251656,-0.598862 -0.4535,-0.821971 -0.191237,-0.233718 -0.428854,-0.411037 -0.73694,-0.538532 -0.297474,-0.138096 -0.662739,-0.198399 -1.077064,-0.198407 -0.318722,8e-6 -0.620161,0.02839 -0.907001,0.113376 -0.286848,0.085 -0.542186,0.202022 -0.765283,0.340125 l 0.935346,-3.939787 z m 9.155046,3.457943 c -0.796796,7e-6 -1.509606,0.148943 -2.125785,0.425157 -0.605565,0.265603 -1.105613,0.620244 -1.530565,1.077064 C 34.549357,47.149845 34.2231,47.685334 34,48.280267 c -0.212478,0.594939 -0.311783,1.194293 -0.311782,1.842346 -10e-7,0.828662 0.269527,1.509561 0.821971,2.040754 0.563062,0.531193 1.389368,0.793626 2.494253,0.793626 0.605554,0 1.13395,-0.0532 1.558909,-0.170063 0.435573,-0.116863 0.744108,-0.223263 0.935345,-0.340126 l -0.113375,-1.133752 c -0.07438,0.05313 -0.191397,0.11694 -0.340126,0.170063 -0.138115,0.05313 -0.29062,0.11694 -0.481844,0.170063 -0.191235,0.05313 -0.400468,0.08151 -0.623563,0.113375 -0.223108,0.03187 -0.446532,0.05669 -0.680252,0.05669 -0.446206,1e-6 -0.836288,-0.0461 -1.133752,-0.141719 -0.286847,-0.09562 -0.510271,-0.226829 -0.68025,-0.396813 -0.169986,-0.16998 -0.276391,-0.354397 -0.340126,-0.566876 -0.06375,-0.223099 -0.113378,-0.464244 -0.113375,-0.708595 -3e-6,-0.478071 0.09573,-0.953263 0.255094,-1.388846 0.159355,-0.446198 0.382779,-0.822126 0.680252,-1.162096 0.308087,-0.350581 0.669824,-0.62011 1.105407,-0.82197 0.435574,-0.212471 0.932055,-0.340117 1.473877,-0.340125 0.446196,8e-6 0.804365,0.03902 1.04872,0.113375 0.254966,0.07438 0.471295,0.170108 0.651908,0.255094 l 0.481844,-1.133753 c -0.286852,-0.116856 -0.606012,-0.201962 -0.935345,-0.255094 -0.329347,-0.06373 -0.698181,-0.08503 -1.133751,-0.08503 z m -15.702463,0.02834 c -0.860538,9e-6 -1.619452,0.15604 -2.267503,0.453501 -0.648059,0.286851 -1.208364,0.655685 -1.64394,1.133752 -0.424957,0.47808 -0.722871,1.038384 -0.935346,1.643941 -0.212478,0.605563 -0.340126,1.204917 -0.340125,1.842346 -10e-7,0.764919 0.212759,1.399714 0.595219,1.899034 0.393082,0.499322 0.985339,0.765282 1.814004,0.765282 0.509941,0 0.960318,-0.102832 1.332158,-0.283437 0.382453,-0.19123 0.666174,-0.375647 0.878658,-0.566876 0.02124,0.148734 0.07088,0.29767 0.113374,0.425156 0.04249,0.116863 0.08858,0.205543 0.14172,0.311783 l 1.162096,-0.14172 c -0.085,-0.265596 -0.155914,-0.496117 -0.198407,-0.708595 -0.0425,-0.2231 -0.05669,-0.457149 -0.05669,-0.680251 0,-0.223099 0.02481,-0.432332 0.05669,-0.623563 0.04249,-0.20185 0.08858,-0.428804 0.141719,-0.651907 l 1.077064,-4.449976 c -0.127496,-0.06373 -0.283527,-0.127561 -0.453501,-0.170063 -0.159365,-0.05311 -0.31187,-0.0815 -0.481844,-0.113375 -0.169989,-0.03186 -0.340214,-0.04606 -0.510189,-0.05669 -0.159364,-0.01059 -0.297676,-0.02834 -0.425157,-0.02834 z m -0.255094,1.105409 c 0.08499,8e-6 0.191385,0.0071 0.340126,0.02834 0.148728,0.01063 0.25865,0.03544 0.311782,0.05669 l -0.878658,3.486286 c -0.0425,0.180609 -0.08151,0.365026 -0.113375,0.566877 -0.02125,0.201855 -0.01772,0.379175 -0.02834,0.538532 -0.212482,0.233726 -0.474916,0.453583 -0.793627,0.623563 -0.308096,0.169978 -0.673361,0.255095 -1.077063,0.255095 -0.2656,0 -0.499648,-0.05672 -0.680252,-0.14172 -0.169984,-0.09562 -0.290577,-0.219733 -0.396812,-0.368469 -0.09562,-0.148733 -0.184258,-0.308333 -0.226751,-0.510189 -0.04249,-0.212474 -0.05669,-0.464243 -0.05669,-0.708594 -3e-6,-0.499319 0.08511,-0.96036 0.255094,-1.41719 0.169979,-0.467446 0.41822,-0.868191 0.736939,-1.218783 0.318712,-0.361206 0.698169,-0.666174 1.133751,-0.878658 0.446198,-0.212471 0.932055,-0.311774 1.473877,-0.311781 z m 7.199324,0 c 0.28684,7e-6 0.527984,0.04611 0.708595,0.141718 0.191224,0.085 0.347256,0.191398 0.4535,0.340126 0.116856,0.14874 0.184249,0.336684 0.226751,0.538532 0.04249,0.191235 0.05668,0.382747 0.05669,0.595219 -7e-6,0.499327 -0.08511,0.978088 -0.255094,1.445534 -0.169989,0.456828 -0.400509,0.885918 -0.708595,1.247127 -0.308097,0.35059 -0.687554,0.637838 -1.133752,0.850314 -0.435582,0.212479 -0.932064,0.311783 -1.473877,0.311782 -0.254976,0 -0.467778,-0.03191 -0.680252,-0.08503 l 1.162096,-4.818446 c 0.244345,-0.180599 0.506778,-0.329536 0.793626,-0.425157 0.286841,-0.09562 0.563465,-0.141711 0.850314,-0.141718 z"
       id="path3095"
       inkscape:connector-curvature="0" />
  </g>
</svg>
