<?xml version="1.0" encoding="UTF-8" standalone="no"?>
<!-- Created with Inkscape (http://www.inkscape.org/) -->

<svg
   xmlns:dc="http://purl.org/dc/elements/1.1/"
   xmlns:cc="http://creativecommons.org/ns#"
   xmlns:rdf="http://www.w3.org/1999/02/22-rdf-syntax-ns#"
   xmlns:svg="http://www.w3.org/2000/svg"
   xmlns="http://www.w3.org/2000/svg"
   xmlns:xlink="http://www.w3.org/1999/xlink"
   xmlns:sodipodi="http://sodipodi.sourceforge.net/DTD/sodipodi-0.dtd"
   xmlns:inkscape="http://www.inkscape.org/namespaces/inkscape"
   width="48"
   height="48"
   id="svg2985"
   version="1.1"
   inkscape:version="0.48.3.1 r9886"
   sodipodi:docname="desktop-settings-icons-dark_48.svg"
   inkscape:export-filename="/media/acw-02/frank-souza/projetos/icones/utt/icons/36/desktop-settings-icons-dark_48.png"
   inkscape:export-xdpi="90"
   inkscape:export-ydpi="90">
  <defs
     id="defs2987">
    <linearGradient
       inkscape:collect="always"
       id="linearGradient3933">
      <stop
         style="stop-color:#9425c5;stop-opacity:1"
         offset="0"
         id="stop3935" />
      <stop
         style="stop-color:#bf79f7;stop-opacity:1"
         offset="1"
         id="stop3937" />
    </linearGradient>
    <linearGradient
       inkscape:collect="always"
       id="linearGradient3060">
      <stop
         style="stop-color:#d5d5d5;stop-opacity:1;"
         offset="0"
         id="stop3062" />
      <stop
         style="stop-color:#ffffff;stop-opacity:1"
         offset="1"
         id="stop3064" />
    </linearGradient>
    <linearGradient
       id="linearGradient3025">
      <stop
         style="stop-color:#e5a66f;stop-opacity:1"
         offset="0"
         id="stop3027" />
      <stop
         id="stop3033"
         offset="0.45016977"
         style="stop-color:#d47048;stop-opacity:1" />
      <stop
         style="stop-color:#773241;stop-opacity:1"
         offset="1"
         id="stop3029" />
    </linearGradient>
    <linearGradient
       id="linearGradient3927-5"
       inkscape:collect="always">
      <stop
         id="stop3929-2"
         offset="0"
         style="stop-color:#eaeaea;stop-opacity:1" />
      <stop
         style="stop-color:#a4a4a4;stop-opacity:1"
         offset="0.17647059"
         id="stop3931-3" />
      <stop
         style="stop-color:#bcbcbc;stop-opacity:1"
         offset="0.34482759"
         id="stop3933-0" />
      <stop
         style="stop-color:#929292;stop-opacity:1"
         offset="0.51724136"
         id="stop3935-3" />
      <stop
         id="stop3937-3"
         offset="0.67647058"
         style="stop-color:#b9b9b9;stop-opacity:1" />
      <stop
         style="stop-color:#959595;stop-opacity:1"
         offset="0.82758623"
         id="stop3939-5" />
      <stop
         id="stop3941-0"
         offset="1"
         style="stop-color:#e3e3e3;stop-opacity:1" />
    </linearGradient>
    <linearGradient
       inkscape:collect="always"
       id="linearGradient4030-7">
      <stop
         style="stop-color:#000000;stop-opacity:1;"
         offset="0"
         id="stop4032-1" />
      <stop
         style="stop-color:#000000;stop-opacity:0;"
         offset="1"
         id="stop4034-3" />
    </linearGradient>
    <linearGradient
       inkscape:collect="always"
       xlink:href="#linearGradient3927-5"
       id="linearGradient3284"
       gradientUnits="userSpaceOnUse"
       gradientTransform="translate(0,17)"
       x1="2"
       y1="5"
       x2="46"
       y2="41" />
    <radialGradient
       inkscape:collect="always"
       xlink:href="#linearGradient3025"
       id="radialGradient3287"
       gradientUnits="userSpaceOnUse"
       gradientTransform="matrix(2.195549e-8,1.8181818,-1.4545455,1.7564393e-8,64.218856,-15.042031)"
       cx="21.473118"
       cy="26.962963"
       fx="21.473118"
       fy="26.962963"
       r="22" />
    <linearGradient
       inkscape:collect="always"
       xlink:href="#linearGradient4030-7"
       id="linearGradient3291"
       gradientUnits="userSpaceOnUse"
       gradientTransform="translate(2,13)"
       x1="6"
       y1="45"
       x2="6"
       y2="46" />
    <linearGradient
       inkscape:collect="always"
       id="linearGradient3981-8">
      <stop
         style="stop-color:#000000;stop-opacity:0.29232112"
         offset="0"
         id="stop3983-8" />
      <stop
         style="stop-color:#000000;stop-opacity:0;"
         offset="1"
         id="stop3985-4" />
    </linearGradient>
    <radialGradient
       r="17"
       fy="26.299978"
       fx="14.749997"
       cy="26.299978"
       cx="14.749997"
       gradientTransform="matrix(1.0300234e-5,0.29411761,-1.2456747,0,57.937538,19.661767)"
       gradientUnits="userSpaceOnUse"
       id="radialGradient3308"
       xlink:href="#linearGradient3981-8"
       inkscape:collect="always" />
    <linearGradient
       inkscape:collect="always"
       xlink:href="#linearGradient3060"
       id="linearGradient3078"
       gradientUnits="userSpaceOnUse"
       gradientTransform="translate(2,6)"
       x1="10"
       y1="48"
       x2="10"
       y2="41" />
    <linearGradient
       inkscape:collect="always"
       xlink:href="#linearGradient3060"
       id="linearGradient3866"
       gradientUnits="userSpaceOnUse"
       gradientTransform="translate(2,-4)"
       x1="10"
       y1="48"
       x2="10"
       y2="41" />
    <linearGradient
       inkscape:collect="always"
       xlink:href="#linearGradient3933"
       id="linearGradient3939"
       x1="12"
       y1="31"
       x2="12"
       y2="27"
       gradientUnits="userSpaceOnUse" />
  </defs>
  <sodipodi:namedview
     id="base"
     pagecolor="#ffffff"
     bordercolor="#666666"
     borderopacity="1.0"
     inkscape:pageopacity="0"
     inkscape:pageshadow="2"
     inkscape:zoom="7.9999996"
     inkscape:cx="44.893207"
     inkscape:cy="30.106884"
     inkscape:current-layer="g3861"
     showgrid="true"
     inkscape:document-units="px"
     inkscape:grid-bbox="true"
     inkscape:window-width="1920"
     inkscape:window-height="1021"
     inkscape:window-x="-4"
     inkscape:window-y="32"
     inkscape:window-maximized="1"
     inkscape:showpageshadow="false"
     showborder="true">
    <inkscape:grid
       type="xygrid"
       id="grid2982"
       empspacing="5"
       visible="true"
       enabled="true"
       snapvisiblegridlinesonly="true" />
  </sodipodi:namedview>
  <metadata
     id="metadata2990">
    <rdf:RDF>
      <cc:Work
         rdf:about="">
        <dc:format>image/svg+xml</dc:format>
        <dc:type
           rdf:resource="http://purl.org/dc/dcmitype/StillImage" />
        <dc:title></dc:title>
      </cc:Work>
    </rdf:RDF>
  </metadata>
  <g
     id="layer1"
     inkscape:label="Layer 1"
     inkscape:groupmode="layer"
     transform="translate(0,-16)">
    <rect
       style="opacity:0.68499122;fill:url(#linearGradient3291);fill-opacity:1;stroke:none"
       id="rect4020-0"
       width="42"
       height="2"
       x="3"
       y="57"
       rx="1"
       ry="0.9375" />
    <rect
       ry="3"
       rx="3"
       y="20"
       x="2"
       height="36"
       width="44"
       id="rect3943-4"
       style="fill:#ffffff;fill-opacity:1;stroke:none" />
    <rect
       style="fill:url(#radialGradient3287);fill-opacity:1;stroke:none"
       id="rect3977-7"
       width="44"
       height="36"
       x="2"
       y="22"
       rx="3"
       ry="3" />
    <rect
       style="fill:url(#radialGradient3308);fill-opacity:1;stroke:none"
       id="rect3964-1"
       width="40"
       height="5"
       x="4"
       y="24"
       rx="0"
       ry="0" />
    <path
       style="fill:url(#linearGradient3284);fill-opacity:1;stroke:none"
       d="m 5,22 c -1.662,0 -3,1.338 -3,3 l 0,30 c 0,1.662 1.338,3 3,3 l 38,0 c 1.662,0 3,-1.338 3,-3 l 0,-30 c 0,-1.662 -1.338,-3 -3,-3 z m 0,2 38,0 c 0.554,0 1,0.446 1,1 l 0,30 c 0,0.554 -0.446,1 -1,1 L 5,56 C 4.446,56 4,55.554 4,55 L 4,25 c 0,-0.554 0.446,-1 1,-1 z"
       id="path3919-9"
       inkscape:connector-curvature="0"
       sodipodi:nodetypes="ssssssssssssssssss" />
    <g
       id="g3861"
       transform="translate(0,-1)">
      <path
         style="fill:url(#linearGradient3866);fill-opacity:1;stroke:none"
         d="m 9,37 0,7 5,0 0,-7 z"
         id="path3089"
         inkscape:connector-curvature="0"
         sodipodi:nodetypes="ccccc" />
      <path
         sodipodi:nodetypes="ccccc"
         inkscape:connector-curvature="0"
         id="path3070"
         d="m 9,42 0,2 5,0 0,-2 z"
         style="fill:#bebebe;fill-opacity:1;stroke:none" />
      <path
         transform="translate(0,14)"
         d="m 13,25.5 a 1.5,1.5 0 1 1 -3,0 1.5,1.5 0 1 1 3,0 z"
         sodipodi:ry="1.5"
         sodipodi:rx="1.5"
         sodipodi:cy="25.5"
         sodipodi:cx="11.5"
         id="path3087"
         style="fill:#cccccc;fill-opacity:1;stroke:none"
         sodipodi:type="arc" />
    </g>
    <g
       id="g3928">
      <rect
         style="opacity:1;fill:#cccccc;fill-opacity:1;stroke:none"
         id="rect3872"
         width="6.9999995"
         height="6.0000005"
         x="8"
         y="26"
         rx="0"
         ry="0" />
      <rect
         transform="scale(1,-1)"
         ry="0"
         rx="0"
         y="-33"
         x="10"
         height="1.0000001"
         width="3"
         id="rect3868"
         style="fill:#cccccc;fill-opacity:1;stroke:none" />
      <rect
         style="opacity:0.75741709000000002;fill:url(#linearGradient3939);fill-opacity:1;stroke:none"
         id="rect3054"
         width="4.9999995"
         height="4.0000005"
         x="9"
         y="27"
         rx="0"
         ry="0" />
    </g>
    <g
       id="g3924"
       transform="translate(0,1)">
      <path
         id="path3892"
         transform="translate(0,16)"
         d="M 11.5,29 C 9.5670034,29 8,30.567003 8,32.5 8,34.432997 9.5670034,36 11.5,36 13.432997,36 15,34.432997 15,32.5 15,30.567003 13.432997,29 11.5,29 z m 0,3 C 11.776142,32 12,32.223858 12,32.5 12,32.776142 11.776142,33 11.5,33 11.223858,33 11,32.776142 11,32.5 11,32.223858 11.223858,32 11.5,32 z"
         style="fill:#cccccc;fill-opacity:1;stroke:none"
         inkscape:connector-curvature="0" />
      <path
         id="path3902"
         transform="translate(0,16)"
         d="M 12.40625,29.125 11.625,32.03125 c 0.167913,0.04684 0.296914,0.175837 0.34375,0.34375 L 14.875,31.59375 C 14.551365,30.385928 13.614072,29.448635 12.40625,29.125 z m -1.375,3.5 -2.90625,0.78125 c 0.323635,1.207822 1.2609279,2.145115 2.46875,2.46875 L 11.375,32.96875 C 11.207087,32.921914 11.078086,32.792913 11.03125,32.625 z"
         style="fill:#ffffff;fill-opacity:1;stroke:none"
         inkscape:connector-curvature="0" />
    </g>
  </g>
</svg>
