<?xml version="1.0" encoding="UTF-8" standalone="no"?>
<!-- Created with Inkscape (http://www.inkscape.org/) -->

<svg
   xmlns:dc="http://purl.org/dc/elements/1.1/"
   xmlns:cc="http://creativecommons.org/ns#"
   xmlns:rdf="http://www.w3.org/1999/02/22-rdf-syntax-ns#"
   xmlns:svg="http://www.w3.org/2000/svg"
   xmlns="http://www.w3.org/2000/svg"
   xmlns:xlink="http://www.w3.org/1999/xlink"
   xmlns:sodipodi="http://sodipodi.sourceforge.net/DTD/sodipodi-0.dtd"
   xmlns:inkscape="http://www.inkscape.org/namespaces/inkscape"
   width="48"
   height="48"
   id="svg2985"
   version="1.1"
   inkscape:version="0.48.3.1 r9886"
   sodipodi:docname="unity-settings-launcher-dark_48.svg"
   inkscape:export-filename="/media/acw-02/frank-souza/projetos/icones/utt/icons/36/unity-settings-launcher-dark_48.png"
   inkscape:export-xdpi="90"
   inkscape:export-ydpi="90">
  <defs
     id="defs2987">
    <linearGradient
       inkscape:collect="always"
       id="linearGradient3999">
      <stop
         style="stop-color:#ffd9af;stop-opacity:1"
         offset="0"
         id="stop4001" />
      <stop
         style="stop-color:#ffb056;stop-opacity:0;"
         offset="1"
         id="stop4003" />
    </linearGradient>
    <linearGradient
       inkscape:collect="always"
       id="linearGradient3881">
      <stop
         style="stop-color:#1c5fa3;stop-opacity:1;"
         offset="0"
         id="stop3883" />
      <stop
         style="stop-color:#5fafff;stop-opacity:1"
         offset="1"
         id="stop3885" />
    </linearGradient>
    <linearGradient
       inkscape:collect="always"
       id="linearGradient3873">
      <stop
         style="stop-color:#b13313;stop-opacity:1"
         offset="0"
         id="stop3875" />
      <stop
         style="stop-color:#fad548;stop-opacity:1"
         offset="1"
         id="stop3877" />
    </linearGradient>
    <linearGradient
       inkscape:collect="always"
       id="linearGradient3840">
      <stop
         style="stop-color:#f55217;stop-opacity:1"
         offset="0"
         id="stop3842" />
      <stop
         style="stop-color:#ff9e48;stop-opacity:1"
         offset="1"
         id="stop3844" />
    </linearGradient>
    <linearGradient
       id="linearGradient3815"
       inkscape:collect="always">
      <stop
         id="stop3817"
         offset="0"
         style="stop-color:#ffffff;stop-opacity:0.28970332" />
      <stop
         id="stop3819"
         offset="1"
         style="stop-color:#ffffff;stop-opacity:0;" />
    </linearGradient>
    <linearGradient
       inkscape:collect="always"
       id="linearGradient3035">
      <stop
         style="stop-color:#ffffff;stop-opacity:0.7574171"
         offset="0"
         id="stop3037" />
      <stop
         style="stop-color:#ffffff;stop-opacity:0;"
         offset="1"
         id="stop3039" />
    </linearGradient>
    <linearGradient
       id="linearGradient3025">
      <stop
         style="stop-color:#f5c499;stop-opacity:1"
         offset="0"
         id="stop3027" />
      <stop
         id="stop3033"
         offset="0.45016977"
         style="stop-color:#ea784b;stop-opacity:1" />
      <stop
         style="stop-color:#862338;stop-opacity:1"
         offset="1"
         id="stop3029" />
    </linearGradient>
    <linearGradient
       id="linearGradient3927-5"
       inkscape:collect="always">
      <stop
         id="stop3929-2"
         offset="0"
         style="stop-color:#eaeaea;stop-opacity:1" />
      <stop
         style="stop-color:#a4a4a4;stop-opacity:1"
         offset="0.17647059"
         id="stop3931-3" />
      <stop
         style="stop-color:#bcbcbc;stop-opacity:1"
         offset="0.34482759"
         id="stop3933-0" />
      <stop
         style="stop-color:#929292;stop-opacity:1"
         offset="0.51724136"
         id="stop3935-3" />
      <stop
         id="stop3937-3"
         offset="0.67647058"
         style="stop-color:#b9b9b9;stop-opacity:1" />
      <stop
         style="stop-color:#959595;stop-opacity:1"
         offset="0.82758623"
         id="stop3939-5" />
      <stop
         id="stop3941-0"
         offset="1"
         style="stop-color:#e3e3e3;stop-opacity:1" />
    </linearGradient>
    <linearGradient
       inkscape:collect="always"
       id="linearGradient4030-7">
      <stop
         style="stop-color:#000000;stop-opacity:1;"
         offset="0"
         id="stop4032-1" />
      <stop
         style="stop-color:#000000;stop-opacity:0;"
         offset="1"
         id="stop4034-3" />
    </linearGradient>
    <radialGradient
       inkscape:collect="always"
       xlink:href="#linearGradient3999"
       id="radialGradient3213"
       gradientUnits="userSpaceOnUse"
       gradientTransform="matrix(-0.66666674,0,-4.145957e-6,-20.370368,-22.066474,996.90113)"
       cx="-13.600001"
       cy="46.833332"
       fx="-13.600001"
       fy="46.833332"
       r="3" />
    <radialGradient
       inkscape:collect="always"
       xlink:href="#linearGradient3035"
       id="radialGradient3215"
       gradientUnits="userSpaceOnUse"
       gradientTransform="matrix(1.6530612,1.3513031e-8,0,1.1020412,-4.8979587,-8.4693986)"
       cx="7.5"
       cy="34"
       fx="7.5"
       fy="34"
       r="3.5" />
    <radialGradient
       inkscape:collect="always"
       xlink:href="#linearGradient3815"
       id="radialGradient3217"
       gradientUnits="userSpaceOnUse"
       gradientTransform="matrix(2.0204077,3.0916247e-7,-2.2484553e-7,1.4693881,-7.6530483,-23.959196)"
       cx="7.5000005"
       cy="42.166664"
       fx="7.5000005"
       fy="42.166664"
       r="3.5" />
    <radialGradient
       inkscape:collect="always"
       xlink:href="#linearGradient3840"
       id="radialGradient3219"
       gradientUnits="userSpaceOnUse"
       gradientTransform="matrix(7.1683649e-7,-2.0000004,4.4799996,0,-145.79999,63.000003)"
       cx="8"
       cy="35"
       fx="8"
       fy="35"
       r="2.5" />
    <linearGradient
       inkscape:collect="always"
       xlink:href="#linearGradient3881"
       id="linearGradient3221"
       gradientUnits="userSpaceOnUse"
       x1="7"
       y1="38"
       x2="7"
       y2="35" />
    <linearGradient
       inkscape:collect="always"
       xlink:href="#linearGradient3873"
       id="linearGradient3223"
       gradientUnits="userSpaceOnUse"
       gradientTransform="matrix(1.3999999,0,0,1.3999999,-2.9999991,-21.401781)"
       x1="6"
       y1="56"
       x2="9"
       y2="52" />
    <linearGradient
       inkscape:collect="always"
       xlink:href="#linearGradient3927-5"
       id="linearGradient3284"
       gradientUnits="userSpaceOnUse"
       gradientTransform="translate(0,17)"
       x1="2"
       y1="5"
       x2="46"
       y2="41" />
    <radialGradient
       inkscape:collect="always"
       xlink:href="#linearGradient3025"
       id="radialGradient3287"
       gradientUnits="userSpaceOnUse"
       gradientTransform="matrix(1.4090909,0,0,1.2272727,-5.3181818,-9.0909089)"
       cx="13"
       cy="40"
       fx="13"
       fy="40"
       r="22" />
    <linearGradient
       inkscape:collect="always"
       xlink:href="#linearGradient4030-7"
       id="linearGradient3291"
       gradientUnits="userSpaceOnUse"
       gradientTransform="translate(2,13)"
       x1="6"
       y1="45"
       x2="6"
       y2="46" />
    <linearGradient
       inkscape:collect="always"
       id="linearGradient3981-8">
      <stop
         style="stop-color:#000000;stop-opacity:0.29232112"
         offset="0"
         id="stop3983-8" />
      <stop
         style="stop-color:#000000;stop-opacity:0;"
         offset="1"
         id="stop3985-4" />
    </linearGradient>
    <radialGradient
       r="17"
       fy="26.299978"
       fx="14.749997"
       cy="26.299978"
       cx="14.749997"
       gradientTransform="matrix(1.0300234e-5,0.29411761,-1.2456747,0,57.937538,19.661767)"
       gradientUnits="userSpaceOnUse"
       id="radialGradient3308"
       xlink:href="#linearGradient3981-8"
       inkscape:collect="always" />
  </defs>
  <sodipodi:namedview
     id="base"
     pagecolor="#ffffff"
     bordercolor="#666666"
     borderopacity="1.0"
     inkscape:pageopacity="0"
     inkscape:pageshadow="2"
     inkscape:zoom="11.313708"
     inkscape:cx="39.612207"
     inkscape:cy="18.878414"
     inkscape:current-layer="g3185"
     showgrid="true"
     inkscape:document-units="px"
     inkscape:grid-bbox="true"
     inkscape:window-width="1920"
     inkscape:window-height="1021"
     inkscape:window-x="-4"
     inkscape:window-y="32"
     inkscape:window-maximized="1"
     inkscape:showpageshadow="false"
     showborder="true">
    <inkscape:grid
       type="xygrid"
       id="grid2982"
       empspacing="5"
       visible="true"
       enabled="true"
       snapvisiblegridlinesonly="true" />
  </sodipodi:namedview>
  <metadata
     id="metadata2990">
    <rdf:RDF>
      <cc:Work
         rdf:about="">
        <dc:format>image/svg+xml</dc:format>
        <dc:type
           rdf:resource="http://purl.org/dc/dcmitype/StillImage" />
        <dc:title></dc:title>
      </cc:Work>
    </rdf:RDF>
  </metadata>
  <g
     id="layer1"
     inkscape:label="Layer 1"
     inkscape:groupmode="layer"
     transform="translate(0,-16)">
    <rect
       style="opacity:0.68499122;fill:url(#linearGradient3291);fill-opacity:1;stroke:none"
       id="rect4020-0"
       width="42"
       height="2"
       x="3"
       y="57"
       rx="1"
       ry="0.9375" />
    <rect
       ry="3"
       rx="3"
       y="20"
       x="2"
       height="36"
       width="44"
       id="rect3943-4"
       style="fill:#ffffff;fill-opacity:1;stroke:none" />
    <rect
       style="fill:url(#radialGradient3287);fill-opacity:1;stroke:none"
       id="rect3977-7"
       width="44"
       height="36"
       x="2"
       y="22"
       rx="3"
       ry="3" />
    <g
       id="g3185"
       transform="translate(2,-3)">
      <rect
         style="fill:#420a0a;fill-opacity:1;stroke:none"
         id="rect3989"
         width="11"
         height="33"
         x="2"
         y="27"
         rx="0"
         ry="0" />
      <rect
         transform="scale(-1,1)"
         ry="0"
         rx="0"
         y="27"
         x="-15"
         height="33"
         width="2"
         id="rect3006"
         style="fill:url(#radialGradient3213);fill-opacity:1;stroke:none" />
      <rect
         ry="1"
         rx="1"
         y="29"
         x="3"
         height="9"
         width="9"
         id="rect3043"
         style="fill:url(#radialGradient3215);fill-opacity:1;stroke:none" />
      <rect
         style="fill:url(#radialGradient3217);fill-opacity:1;stroke:none"
         id="rect3019"
         width="9"
         height="9"
         x="3"
         y="29"
         rx="1"
         ry="1" />
      <rect
         style="fill:#333333;fill-opacity:1;stroke:none"
         id="rect3021"
         width="9"
         height="9"
         x="3"
         y="39"
         rx="1"
         ry="1" />
      <rect
         ry="1"
         rx="1"
         y="49"
         x="3"
         height="9"
         width="9"
         id="rect3011"
         style="fill:#333333;fill-opacity:1;stroke:none" />
      <path
         inkscape:connector-curvature="0"
         style="fill:#ffffff;fill-opacity:1;fill-rule:nonzero;stroke:none"
         d="m 7.5,30.285714 c -1.7751964,0 -3.2142857,1.43909 -3.2142857,3.214286 0,1.775196 1.4390893,3.214286 3.2142857,3.214286 1.7751968,0 3.214286,-1.43909 3.214286,-3.214286 0,-1.775196 -1.4390894,-3.214286 -3.2142861,-3.214286 z m 1.0762119,0.947066 c 0.074073,-0.0015 0.1464387,0.01764 0.2152427,0.05741 0.2005052,0.115662 0.2735064,0.373474 0.1578441,0.57398 C 8.8336345,32.064671 8.5758244,32.123325 8.3753192,32.007662 8.174814,31.892 8.1161613,31.648538 8.2318246,31.448033 8.307728,31.316447 8.4347999,31.235951 8.576212,31.232789 z m -1.0618624,0.444836 c 0.1686462,0 0.3330887,0.02915 0.4878832,0.07175 0.027357,0.168299 0.1280391,0.324367 0.2869891,0.416136 0.1592953,0.09212 0.3432823,0.103307 0.5022328,0.04305 0.3102795,0.304741 0.5165379,0.714701 0.5452806,1.176658 l -0.602679,0 C 8.6793422,32.759802 8.1539566,32.2803 7.5143495,32.2803 c -0.1842291,0 -0.3597091,0.04172 -0.5165813,0.114788 l -0.2869899,-0.53093 c 0.2434456,-0.120514 0.5137228,-0.186543 0.8035712,-0.186543 z m -1.0044643,0.301338 0.3013397,0.516582 C 6.4964421,32.717512 6.2946429,33.085832 6.2946429,33.5 c 0,0.414516 0.2018,0.783181 0.516582,1.004464 L 6.5098852,35.021046 C 6.1431581,34.776217 5.8626018,34.398285 5.7493619,33.959184 5.8819927,33.851141 5.9789538,33.684229 5.9789538,33.5 c 0,-0.18423 -0.082958,-0.351483 -0.2152424,-0.459184 0.1128908,-0.438754 0.3794467,-0.816686 0.7461738,-1.061862 z m -1.1192601,1.10491 c 0.2313254,0 0.4161355,0.184813 0.4161355,0.416136 3.488e-4,0.23098 -0.1844631,0.416136 -0.4161355,0.416136 -0.2313254,0 -0.4304848,-0.18481 -0.4304848,-0.416136 0,-0.23167 0.1991594,-0.416136 0.4304848,-0.416136 z m 3.3434311,0.530932 0.602679,0 c -0.029089,0.461956 -0.2350011,0.885922 -0.5452806,1.191008 -0.1592969,-0.06025 -0.3429362,-0.06307 -0.5022328,0.0287 -0.1589481,0.09212 -0.2596322,0.247837 -0.2869891,0.416137 -0.1547939,0.04329 -0.319237,0.07175 -0.4878832,0.07175 -0.2898484,0 -0.5601245,-0.06603 -0.8035712,-0.186543 l 0.2869901,-0.530933 c 0.1568718,0.07307 0.3323521,0.114789 0.5165811,0.114789 0.6396071,0 1.1649928,-0.479849 1.2197067,-1.104911 z m -0.157844,1.320154 c 0.1486211,-0.004 0.293568,0.06281 0.3730866,0.200891 0.1156616,0.199813 0.042663,0.458319 -0.1578441,0.57398 -0.2001588,0.115663 -0.4439679,0.04301 -0.5596304,-0.157845 -0.1156641,-0.200158 -0.057011,-0.443967 0.1434946,-0.559631 0.062658,-0.03614 0.133338,-0.05561 0.2008931,-0.05741 z"
         id="path3520" />
      <rect
         ry="0"
         rx="0"
         y="42"
         x="4"
         height="5.0000005"
         width="6.9999995"
         id="rect3838"
         style="opacity:0.75741709;fill:url(#radialGradient3219);fill-opacity:1;stroke:none" />
      <rect
         style="fill:#d5d5d5;fill-opacity:1;stroke:none"
         id="rect3327"
         width="7.0000005"
         height="1.0000008"
         x="4"
         y="41" />
      <rect
         y="40"
         x="4"
         height="2.0000017"
         width="4.0000005"
         id="rect3848"
         style="fill:#d5d5d5;fill-opacity:1;stroke:none" />
      <path
         sodipodi:type="arc"
         style="fill:url(#linearGradient3221);fill-opacity:1;stroke:none"
         id="path3852"
         sodipodi:cx="7.5"
         sodipodi:cy="37.5"
         sodipodi:rx="2.5"
         sodipodi:ry="2.5"
         d="M 10,37.5 C 10,38.880712 8.8807119,40 7.5,40 6.1192881,40 5,38.880712 5,37.5 5,36.119288 6.1192881,35 7.5,35 8.8807119,35 10,36.119288 10,37.5 z"
         transform="matrix(1.3999999,0,0,1.3999999,-2.9999994,1.0000013)" />
      <path
         id="path3852-1"
         d="m 7.01875,50.041963 c -1.7022532,0.237205 -3.0187497,1.688674 -3.0187497,3.45625 0,1.932997 1.5670032,3.499999 3.4999997,3.499999 1.9329965,0 3.5,-1.567002 3.5,-3.499999 0,-1.767576 -1.3164968,-3.219045 -3.01875,-3.45625 0.9364895,0.211253 1.6187498,1.055925 1.6187498,2.05625 0,1.159798 -0.9402019,2.1 -2.0999998,2.1 -1.1597979,0 -2.0999998,-0.940202 -2.0999998,-2.1 0,-1.000325 0.6822603,-1.844997 1.6187498,-2.05625 z"
         style="fill:url(#linearGradient3223);fill-opacity:1;stroke:none"
         inkscape:connector-curvature="0" />
      <path
         sodipodi:nodetypes="ccccccc"
         inkscape:connector-curvature="0"
         id="rect4007"
         d="m 17,40 14,0 0,7 -14,0 -3,-3 0,-1 z"
         style="opacity:0.62303664;fill:#000000;fill-opacity:1;stroke:none" />
      <path
         style="opacity:0.34642238;fill:#ffffff;fill-opacity:1;stroke:none"
         d="m 17,43 0,1 1,0 0,-1 -1,0 z m 2,0 0,1 2,0 0,-1 -2,0 z m 3,0 0,1 1,0 0,-1 -1,0 z m 2,0 0,1 3,0 0,-1 -3,0 z m 4,0 0,1 1,0 0,-1 -1,0 z"
         id="rect4012"
         inkscape:connector-curvature="0" />
    </g>
    <path
       style="fill:url(#linearGradient3284);fill-opacity:1;stroke:none"
       d="m 5,22 c -1.662,0 -3,1.338 -3,3 l 0,30 c 0,1.662 1.338,3 3,3 l 38,0 c 1.662,0 3,-1.338 3,-3 l 0,-30 c 0,-1.662 -1.338,-3 -3,-3 z m 0,2 38,0 c 0.554,0 1,0.446 1,1 l 0,30 c 0,0.554 -0.446,1 -1,1 L 5,56 C 4.446,56 4,55.554 4,55 L 4,25 c 0,-0.554 0.446,-1 1,-1 z"
       id="path3919-9"
       inkscape:connector-curvature="0"
       sodipodi:nodetypes="ssssssssssssssssss" />
    <rect
       style="fill:url(#radialGradient3308);fill-opacity:1;stroke:none"
       id="rect3964-1"
       width="40"
       height="5"
       x="4"
       y="24"
       rx="0"
       ry="0" />
  </g>
</svg>
