<?xml version="1.0" encoding="UTF-8" standalone="no"?>
<!-- Created with Inkscape (http://www.inkscape.org/) -->

<svg
   xmlns:dc="http://purl.org/dc/elements/1.1/"
   xmlns:cc="http://creativecommons.org/ns#"
   xmlns:rdf="http://www.w3.org/1999/02/22-rdf-syntax-ns#"
   xmlns:svg="http://www.w3.org/2000/svg"
   xmlns="http://www.w3.org/2000/svg"
   xmlns:xlink="http://www.w3.org/1999/xlink"
   xmlns:sodipodi="http://sodipodi.sourceforge.net/DTD/sodipodi-0.dtd"
   xmlns:inkscape="http://www.inkscape.org/namespaces/inkscape"
   width="48"
   height="48"
   id="svg2985"
   version="1.1"
   inkscape:version="0.48.4 r9939"
   sodipodi:docname="unity-settings-launcher.svg"
   inkscape:export-filename="/media/acw-02/frank-souza/projetos/icones/utt/icons/36/unity-settings-launcher-dark_48.png"
   inkscape:export-xdpi="90"
   inkscape:export-ydpi="90">
  <defs
     id="defs2987">
    <linearGradient
       inkscape:collect="always"
       id="linearGradient3999">
      <stop
         style="stop-color:#ffd9af;stop-opacity:1"
         offset="0"
         id="stop4001" />
      <stop
         style="stop-color:#ffb056;stop-opacity:0;"
         offset="1"
         id="stop4003" />
    </linearGradient>
    <linearGradient
       inkscape:collect="always"
       id="linearGradient3881">
      <stop
         style="stop-color:#1c5fa3;stop-opacity:1;"
         offset="0"
         id="stop3883" />
      <stop
         style="stop-color:#5fafff;stop-opacity:1"
         offset="1"
         id="stop3885" />
    </linearGradient>
    <linearGradient
       inkscape:collect="always"
       id="linearGradient3873">
      <stop
         style="stop-color:#b13313;stop-opacity:1"
         offset="0"
         id="stop3875" />
      <stop
         style="stop-color:#fad548;stop-opacity:1"
         offset="1"
         id="stop3877" />
    </linearGradient>
    <linearGradient
       inkscape:collect="always"
       id="linearGradient3840">
      <stop
         style="stop-color:#f55217;stop-opacity:1"
         offset="0"
         id="stop3842" />
      <stop
         style="stop-color:#ff9e48;stop-opacity:1"
         offset="1"
         id="stop3844" />
    </linearGradient>
    <linearGradient
       id="linearGradient3815"
       inkscape:collect="always">
      <stop
         id="stop3817"
         offset="0"
         style="stop-color:#ffffff;stop-opacity:0.28970332" />
      <stop
         id="stop3819"
         offset="1"
         style="stop-color:#ffffff;stop-opacity:0;" />
    </linearGradient>
    <linearGradient
       inkscape:collect="always"
       id="linearGradient3035">
      <stop
         style="stop-color:#ffffff;stop-opacity:0.7574171"
         offset="0"
         id="stop3037" />
      <stop
         style="stop-color:#ffffff;stop-opacity:0;"
         offset="1"
         id="stop3039" />
    </linearGradient>
    <linearGradient
       id="linearGradient3025">
      <stop
         style="stop-color:#f5c499;stop-opacity:1"
         offset="0"
         id="stop3027" />
      <stop
         id="stop3033"
         offset="0.45016977"
         style="stop-color:#ea784b;stop-opacity:1" />
      <stop
         style="stop-color:#862338;stop-opacity:1"
         offset="1"
         id="stop3029" />
    </linearGradient>
    <linearGradient
       id="linearGradient3927-5"
       inkscape:collect="always">
      <stop
         id="stop3929-2"
         offset="0"
         style="stop-color:#eaeaea;stop-opacity:1" />
      <stop
         style="stop-color:#a4a4a4;stop-opacity:1"
         offset="0.17647059"
         id="stop3931-3" />
      <stop
         style="stop-color:#bcbcbc;stop-opacity:1"
         offset="0.34482759"
         id="stop3933-0" />
      <stop
         style="stop-color:#929292;stop-opacity:1"
         offset="0.51724136"
         id="stop3935-3" />
      <stop
         id="stop3937-3"
         offset="0.67647058"
         style="stop-color:#b9b9b9;stop-opacity:1" />
      <stop
         style="stop-color:#959595;stop-opacity:1"
         offset="0.82758623"
         id="stop3939-5" />
      <stop
         id="stop3941-0"
         offset="1"
         style="stop-color:#e3e3e3;stop-opacity:1" />
    </linearGradient>
    <linearGradient
       inkscape:collect="always"
       id="linearGradient4030-7">
      <stop
         style="stop-color:#000000;stop-opacity:1;"
         offset="0"
         id="stop4032-1" />
      <stop
         style="stop-color:#000000;stop-opacity:0;"
         offset="1"
         id="stop4034-3" />
    </linearGradient>
    <radialGradient
       inkscape:collect="always"
       xlink:href="#linearGradient3999"
       id="radialGradient3213"
       gradientUnits="userSpaceOnUse"
       gradientTransform="matrix(-0.66666674,0,-4.145957e-6,-20.370368,-22.066474,996.90113)"
       cx="-13.600001"
       cy="46.833332"
       fx="-13.600001"
       fy="46.833332"
       r="3" />
    <radialGradient
       inkscape:collect="always"
       xlink:href="#linearGradient3035"
       id="radialGradient3215"
       gradientUnits="userSpaceOnUse"
       gradientTransform="matrix(1.6530612,1.3513031e-8,0,1.1020412,-4.8979587,-8.4693986)"
       cx="7.5"
       cy="34"
       fx="7.5"
       fy="34"
       r="3.5" />
    <radialGradient
       inkscape:collect="always"
       xlink:href="#linearGradient3815"
       id="radialGradient3217"
       gradientUnits="userSpaceOnUse"
       gradientTransform="matrix(2.0204077,3.0916247e-7,-2.2484553e-7,1.4693881,-7.6530483,-23.959196)"
       cx="7.5000005"
       cy="42.166664"
       fx="7.5000005"
       fy="42.166664"
       r="3.5" />
    <radialGradient
       inkscape:collect="always"
       xlink:href="#linearGradient3840"
       id="radialGradient3219"
       gradientUnits="userSpaceOnUse"
       gradientTransform="matrix(7.1683649e-7,-2.0000004,4.4799996,0,-145.79999,63.000003)"
       cx="8"
       cy="35"
       fx="8"
       fy="35"
       r="2.5" />
    <linearGradient
       inkscape:collect="always"
       xlink:href="#linearGradient3881"
       id="linearGradient3221"
       gradientUnits="userSpaceOnUse"
       x1="7"
       y1="38"
       x2="7"
       y2="35" />
    <linearGradient
       inkscape:collect="always"
       xlink:href="#linearGradient3873"
       id="linearGradient3223"
       gradientUnits="userSpaceOnUse"
       gradientTransform="matrix(1.3999999,0,0,1.3999999,-2.9999991,-21.401781)"
       x1="6"
       y1="56"
       x2="9"
       y2="52" />
    <linearGradient
       inkscape:collect="always"
       xlink:href="#linearGradient3927-5"
       id="linearGradient3284"
       gradientUnits="userSpaceOnUse"
       gradientTransform="translate(1.5e-7,17)"
       x1="2"
       y1="5"
       x2="46"
       y2="41" />
    <radialGradient
       inkscape:collect="always"
       xlink:href="#linearGradient3025"
       id="radialGradient3287"
       gradientUnits="userSpaceOnUse"
       gradientTransform="matrix(1.3450413,0,0,1.1590909,-3.9855372,-6.3636362)"
       cx="13"
       cy="40"
       fx="13"
       fy="40"
       r="22" />
    <linearGradient
       inkscape:collect="always"
       xlink:href="#linearGradient4030-7"
       id="linearGradient3291"
       gradientUnits="userSpaceOnUse"
       gradientTransform="translate(2,13)"
       x1="6"
       y1="45"
       x2="6"
       y2="46" />
    <linearGradient
       inkscape:collect="always"
       id="linearGradient3981-8">
      <stop
         style="stop-color:#000000;stop-opacity:0.29232112"
         offset="0"
         id="stop3983-8" />
      <stop
         style="stop-color:#000000;stop-opacity:0;"
         offset="1"
         id="stop3985-4" />
    </linearGradient>
    <radialGradient
       r="17"
       fy="26.299978"
       fx="14.749997"
       cy="26.299978"
       cx="14.749997"
       gradientTransform="matrix(1.0300234e-5,0.29411761,-1.2456747,0,57.937538,19.661767)"
       gradientUnits="userSpaceOnUse"
       id="radialGradient3308"
       xlink:href="#linearGradient3981-8"
       inkscape:collect="always" />
  </defs>
  <sodipodi:namedview
     id="base"
     pagecolor="#ffffff"
     bordercolor="#666666"
     borderopacity="1.0"
     inkscape:pageopacity="0"
     inkscape:pageshadow="2"
     inkscape:zoom="1"
     inkscape:cx="9.954233"
     inkscape:cy="34.509261"
     inkscape:current-layer="layer1"
     showgrid="false"
     inkscape:document-units="px"
     inkscape:grid-bbox="true"
     inkscape:window-width="1366"
     inkscape:window-height="709"
     inkscape:window-x="0"
     inkscape:window-y="27"
     inkscape:window-maximized="1"
     inkscape:showpageshadow="false"
     showborder="true"
     showguides="true"
     inkscape:guide-bbox="true">
    <inkscape:grid
       type="xygrid"
       id="grid2982"
       empspacing="5"
       visible="true"
       enabled="true"
       snapvisiblegridlinesonly="true" />
    <sodipodi:guide
       orientation="1,0"
       position="1.53125,36.125"
       id="guide3049" />
  </sodipodi:namedview>
  <metadata
     id="metadata2990">
    <rdf:RDF>
      <cc:Work
         rdf:about="">
        <dc:format>image/svg+xml</dc:format>
        <dc:type
           rdf:resource="http://purl.org/dc/dcmitype/StillImage" />
        <dc:title />
      </cc:Work>
    </rdf:RDF>
  </metadata>
  <g
     id="layer1"
     inkscape:label="Layer 1"
     inkscape:groupmode="layer"
     transform="translate(0,-16)">
    <rect
       style="opacity:0.68499122;fill:url(#linearGradient3291);fill-opacity:1;stroke:none"
       id="rect4020-0"
       width="42"
       height="2"
       x="3"
       y="57"
       rx="1"
       ry="0.9375" />
    <rect
       style="fill:url(#radialGradient3287);fill-opacity:1;stroke:none"
       id="rect3977-7"
       width="42"
       height="34"
       x="3"
       y="23"
       rx="3"
       ry="3" />
    <rect
       style="fill:url(#radialGradient3308);fill-opacity:1;stroke:none"
       id="rect3964-1"
       width="40"
       height="5"
       x="4"
       y="24"
       rx="0"
       ry="0" />
    <g
       id="g3185"
       transform="translate(2,-2.984375)">
      <rect
         style="fill:#420a0a;fill-opacity:1;stroke:none"
         id="rect3989"
         width="11"
         height="33"
         x="2"
         y="27"
         rx="0"
         ry="0" />
      <rect
         transform="scale(-1,1)"
         ry="0"
         rx="0"
         y="27"
         x="-15"
         height="33"
         width="2"
         id="rect3006"
         style="fill:url(#radialGradient3213);fill-opacity:1;stroke:none" />
      <rect
         ry="1"
         rx="1"
         y="29"
         x="3"
         height="9"
         width="9"
         id="rect3043"
         style="fill:url(#radialGradient3215);fill-opacity:1;stroke:none" />
      <rect
         style="fill:url(#radialGradient3217);fill-opacity:1;stroke:none"
         id="rect3019"
         width="9"
         height="9"
         x="3"
         y="29"
         rx="1"
         ry="1" />
      <rect
         style="fill:#333333;fill-opacity:1;stroke:none"
         id="rect3021"
         width="9"
         height="9"
         x="3"
         y="39"
         rx="1"
         ry="1" />
      <rect
         ry="1"
         rx="1"
         y="49"
         x="3"
         height="9"
         width="9"
         id="rect3011"
         style="fill:#333333;fill-opacity:1;stroke:none" />
      <path
         style="fill:#ffffff;fill-opacity:1;fill-rule:nonzero;stroke:none"
         d="M 9.5 11 C 7.5670086 11 6 12.567009 6 14.5 C 6 16.432991 7.5670086 18 9.5 18 C 11.432992 18 13 16.432991 13 14.5 C 13 12.567009 11.432992 11 9.5 11 z M 9.5 12 C 9.8767451 12 10.24126 12.06777 10.5625 12.21875 C 10.567009 12.220869 10.558006 12.247855 10.5625 12.25 C 10.531819 12.331877 10.5 12.407411 10.5 12.5 C 10.5 12.914214 10.835786 13.25 11.25 13.25 C 11.377987 13.25 11.48833 13.212776 11.59375 13.15625 C 11.841605 13.544065 12 14.008249 12 14.5 C 12 14.991751 11.841605 15.455935 11.59375 15.84375 C 11.48833 15.787224 11.377987 15.75 11.25 15.75 C 10.835786 15.75 10.5 16.085786 10.5 16.5 C 10.5 16.592589 10.531819 16.668123 10.5625 16.75 C 10.566133 16.759696 10.558482 16.771749 10.5625 16.78125 C 10.24126 16.93223 9.8767451 17 9.5 17 C 8.3669395 17 7.4288056 16.225914 7.125 15.1875 C 7.4080118 15.080211 7.59375 14.820617 7.59375 14.5 C 7.59375 14.179383 7.4080118 13.919789 7.125 13.8125 C 7.4288056 12.774086 8.3669395 12 9.5 12 z M 9.5 13 C 8.6656505 13 8 13.665651 8 14.5 C 8 15.334349 8.6656505 16 9.5 16 C 10.334349 16 11 15.334349 11 14.5 C 11 13.665651 10.334349 13 9.5 13 z "
         transform="translate(-2,18.984375)"
         id="path3520" />
      <rect
         ry="0"
         rx="0"
         y="42"
         x="4"
         height="5.0000005"
         width="6.9999995"
         id="rect3838"
         style="opacity:0.75741709;fill:url(#radialGradient3219);fill-opacity:1;stroke:none" />
      <rect
         style="fill:#d5d5d5;fill-opacity:1;stroke:none"
         id="rect3327"
         width="7.0000005"
         height="1.0000008"
         x="4"
         y="41" />
      <rect
         y="40"
         x="4"
         height="2.0000017"
         width="4.0000005"
         id="rect3848"
         style="fill:#d5d5d5;fill-opacity:1;stroke:none" />
      <path
         sodipodi:type="arc"
         style="fill:url(#linearGradient3221);fill-opacity:1;stroke:none"
         id="path3852"
         sodipodi:cx="7.5"
         sodipodi:cy="37.5"
         sodipodi:rx="2.5"
         sodipodi:ry="2.5"
         d="M 10,37.5 C 10,38.880712 8.8807119,40 7.5,40 6.1192881,40 5,38.880712 5,37.5 5,36.119288 6.1192881,35 7.5,35 8.8807119,35 10,36.119288 10,37.5 z"
         transform="matrix(1.3999999,0,0,1.3999999,-2.9999994,1.0000013)" />
      <path
         id="path3852-1"
         d="m 7.01875,50.041963 c -1.7022532,0.237205 -3.0187497,1.688674 -3.0187497,3.45625 0,1.932997 1.5670032,3.499999 3.4999997,3.499999 1.9329965,0 3.5,-1.567002 3.5,-3.499999 0,-1.767576 -1.3164968,-3.219045 -3.01875,-3.45625 0.9364895,0.211253 1.6187498,1.055925 1.6187498,2.05625 0,1.159798 -0.9402019,2.1 -2.0999998,2.1 -1.1597979,0 -2.0999998,-0.940202 -2.0999998,-2.1 0,-1.000325 0.6822603,-1.844997 1.6187498,-2.05625 z"
         style="fill:url(#linearGradient3223);fill-opacity:1;stroke:none"
         inkscape:connector-curvature="0" />
      <path
         sodipodi:nodetypes="ccccccc"
         inkscape:connector-curvature="0"
         id="rect4007"
         d="m 16,41 15,0 0,5 -15,0 -2,-2 0,-1 z"
         style="opacity:0.62303664;fill:#000000;fill-opacity:1;stroke:none" />
      <path
         style="opacity:0.34642238;fill:#ffffff;fill-opacity:1;stroke:none"
         d="m 17,43 0,1 1,0 0,-1 -1,0 z m 2,0 0,1 2,0 0,-1 -2,0 z m 3,0 0,1 1,0 0,-1 -1,0 z m 2,0 0,1 3,0 0,-1 -3,0 z m 4,0 0,1 1,0 0,-1 -1,0 z"
         id="rect4012"
         inkscape:connector-curvature="0" />
    </g>
    <path
       style="fill:url(#linearGradient3284);fill-opacity:1;stroke:none"
       d="m 4,22 c -2,0 -2,2 -2,2 l 0,32 c 0,0 0,2 2,2 l 40,0 c 2,0 2,-2 2,-2 l 0,-32 c 0,-2 -2,-2 -2,-2 z M 5.0000001,24 43,24 c 0.554,0 1,0.446 1,1 l 0,30 c 0,0.554 -0.446,1 -1,1 L 5.0000002,56 c -0.554,0 -1,-0.446 -1,-1 l 0,-30 c 0,-0.554 0.446,-1 0.9999999,-1 z"
       id="path3919-9"
       inkscape:connector-curvature="0"
       sodipodi:nodetypes="sccsscscssssssssss" />
  </g>
</svg>
