<?xml version="1.0" encoding="UTF-8" standalone="no"?>
<!-- Created with Inkscape (http://www.inkscape.org/) -->

<svg
   xmlns:dc="http://purl.org/dc/elements/1.1/"
   xmlns:cc="http://creativecommons.org/ns#"
   xmlns:rdf="http://www.w3.org/1999/02/22-rdf-syntax-ns#"
   xmlns:svg="http://www.w3.org/2000/svg"
   xmlns="http://www.w3.org/2000/svg"
   xmlns:xlink="http://www.w3.org/1999/xlink"
   xmlns:sodipodi="http://sodipodi.sourceforge.net/DTD/sodipodi-0.dtd"
   xmlns:inkscape="http://www.inkscape.org/namespaces/inkscape"
   width="48"
   height="48"
   id="svg2985"
   version="1.1"
   inkscape:version="0.48.3.1 r9886"
   sodipodi:docname="unity-settings-additional-dark_48.svg"
   inkscape:export-filename="/media/acw-02/frank-souza/projetos/icones/utt/icons/36/unity-settings-additional-dark_48.png"
   inkscape:export-xdpi="90"
   inkscape:export-ydpi="90">
  <defs
     id="defs2987">
    <linearGradient
       inkscape:collect="always"
       id="linearGradient3888">
      <stop
         style="stop-color:#d7e866;stop-opacity:1"
         offset="0"
         id="stop3890" />
      <stop
         style="stop-color:#96b332;stop-opacity:1"
         offset="1"
         id="stop3892" />
    </linearGradient>
    <linearGradient
       inkscape:collect="always"
       id="linearGradient3832">
      <stop
         style="stop-color:#a7a79b;stop-opacity:1"
         offset="0"
         id="stop3834" />
      <stop
         style="stop-color:#6b6a5f;stop-opacity:1"
         offset="1"
         id="stop3836" />
    </linearGradient>
    <linearGradient
       id="linearGradient3927-5"
       inkscape:collect="always">
      <stop
         id="stop3929-2"
         offset="0"
         style="stop-color:#eaeaea;stop-opacity:1" />
      <stop
         style="stop-color:#a4a4a4;stop-opacity:1"
         offset="0.17647059"
         id="stop3931-3" />
      <stop
         style="stop-color:#bcbcbc;stop-opacity:1"
         offset="0.34482759"
         id="stop3933-0" />
      <stop
         style="stop-color:#929292;stop-opacity:1"
         offset="0.51724136"
         id="stop3935-3" />
      <stop
         id="stop3937-3"
         offset="0.67647058"
         style="stop-color:#b9b9b9;stop-opacity:1" />
      <stop
         style="stop-color:#959595;stop-opacity:1"
         offset="0.82758623"
         id="stop3939-5" />
      <stop
         id="stop3941-0"
         offset="1"
         style="stop-color:#e3e3e3;stop-opacity:1" />
    </linearGradient>
    <linearGradient
       inkscape:collect="always"
       id="linearGradient4030-7">
      <stop
         style="stop-color:#000000;stop-opacity:1;"
         offset="0"
         id="stop4032-1" />
      <stop
         style="stop-color:#000000;stop-opacity:0;"
         offset="1"
         id="stop4034-3" />
    </linearGradient>
    <linearGradient
       inkscape:collect="always"
       xlink:href="#linearGradient3927-5"
       id="linearGradient3284"
       gradientUnits="userSpaceOnUse"
       gradientTransform="translate(0,17)"
       x1="2"
       y1="5"
       x2="46"
       y2="41" />
    <linearGradient
       inkscape:collect="always"
       xlink:href="#linearGradient4030-7"
       id="linearGradient3291"
       gradientUnits="userSpaceOnUse"
       gradientTransform="translate(2,13)"
       x1="6"
       y1="45"
       x2="6"
       y2="46" />
    <linearGradient
       inkscape:collect="always"
       id="linearGradient3981-8">
      <stop
         style="stop-color:#000000;stop-opacity:0.29232112"
         offset="0"
         id="stop3983-8" />
      <stop
         style="stop-color:#000000;stop-opacity:0;"
         offset="1"
         id="stop3985-4" />
    </linearGradient>
    <radialGradient
       r="17"
       fy="26.299978"
       fx="14.749997"
       cy="26.299978"
       cx="14.749997"
       gradientTransform="matrix(1.0300234e-5,0.29411761,-1.2456747,0,57.937538,19.661767)"
       gradientUnits="userSpaceOnUse"
       id="radialGradient3308"
       xlink:href="#linearGradient3981-8"
       inkscape:collect="always" />
    <radialGradient
       inkscape:collect="always"
       xlink:href="#linearGradient3832"
       id="radialGradient3838"
       cx="24.000002"
       cy="20.444445"
       fx="24.000002"
       fy="20.444445"
       r="22"
       gradientTransform="matrix(0,1.4545453,-0.90909091,0,42.585859,-10.909088)"
       gradientUnits="userSpaceOnUse" />
    <linearGradient
       x1="24.139"
       y1="6.5317"
       gradientTransform="matrix(0.53994,0,0,0.53668,-0.84892,-0.5062)"
       x2="24.139"
       gradientUnits="userSpaceOnUse"
       y2="45.69"
       id="linearGradient2397">
      <stop
         offset="0"
         style="stop-color:#fff"
         id="stop4224" />
      <stop
         offset="1"
         style="stop-color:#fff;stop-opacity:0"
         id="stop4226" />
    </linearGradient>
    <linearGradient
       x1="24.104"
       y1="15.181"
       gradientTransform="matrix(0.89889,0,0,0.89347,-9.4637,-8.566)"
       x2="24.104"
       gradientUnits="userSpaceOnUse"
       y2="34.225"
       id="linearGradient2400">
      <stop
         offset="0"
         style="stop-color:#d7e866"
         id="stop2266" />
      <stop
         offset="1"
         style="stop-color:#8cab2a"
         id="stop2268" />
    </linearGradient>
    <radialGradient
       r="8.0625"
       gradientTransform="matrix(1.4062,0,0,0.3867,-3.8197,13.523)"
       cx="11.25"
       cy="19.031"
       gradientUnits="userSpaceOnUse"
       id="radialGradient2403">
      <stop
         offset="0"
         style="stop-color:#0d0d0d"
         id="stop2487" />
      <stop
         offset="1"
         style="stop-color:#0d0d0d;stop-opacity:0"
         id="stop2489" />
    </radialGradient>
    <radialGradient
       inkscape:collect="always"
       xlink:href="#linearGradient3888"
       id="radialGradient3908"
       gradientUnits="userSpaceOnUse"
       gradientTransform="matrix(1.7604938e-7,1.8888889,-1.6666667,1.5533768e-7,67.999994,-25.333338)"
       cx="33"
       cy="21"
       fx="33"
       fy="21"
       r="9" />
    <linearGradient
       inkscape:collect="always"
       xlink:href="#linearGradient4384"
       id="linearGradient4390"
       x1="16.5"
       y1="32"
       x2="16.5"
       y2="57"
       gradientUnits="userSpaceOnUse" />
    <linearGradient
       inkscape:collect="always"
       id="linearGradient4384">
      <stop
         style="stop-color:#000000;stop-opacity:0.54712042"
         offset="0"
         id="stop4386" />
      <stop
         style="stop-color:#000000;stop-opacity:0.12827225"
         offset="1"
         id="stop4388" />
    </linearGradient>
  </defs>
  <sodipodi:namedview
     id="base"
     pagecolor="#ffffff"
     bordercolor="#666666"
     borderopacity="1.0"
     inkscape:pageopacity="0"
     inkscape:pageshadow="2"
     inkscape:zoom="11.313708"
     inkscape:cx="24.075739"
     inkscape:cy="19.960588"
     inkscape:current-layer="layer1"
     showgrid="true"
     inkscape:document-units="px"
     inkscape:grid-bbox="true"
     inkscape:window-width="1920"
     inkscape:window-height="1021"
     inkscape:window-x="-4"
     inkscape:window-y="32"
     inkscape:window-maximized="1"
     inkscape:showpageshadow="false"
     showborder="true">
    <inkscape:grid
       type="xygrid"
       id="grid2982"
       empspacing="5"
       visible="true"
       enabled="true"
       snapvisiblegridlinesonly="true" />
  </sodipodi:namedview>
  <metadata
     id="metadata2990">
    <rdf:RDF>
      <cc:Work
         rdf:about="">
        <dc:format>image/svg+xml</dc:format>
        <dc:type
           rdf:resource="http://purl.org/dc/dcmitype/StillImage" />
        <dc:title></dc:title>
      </cc:Work>
    </rdf:RDF>
  </metadata>
  <g
     id="layer1"
     inkscape:label="Layer 1"
     inkscape:groupmode="layer"
     transform="translate(0,-16)">
    <rect
       style="opacity:0.68499122;fill:url(#linearGradient3291);fill-opacity:1;stroke:none"
       id="rect4020-0"
       width="42"
       height="2"
       x="3"
       y="57"
       rx="1"
       ry="0.9375" />
    <rect
       ry="3"
       rx="3"
       y="20"
       x="2"
       height="36"
       width="44"
       id="rect3943-4"
       style="fill:#ffffff;fill-opacity:1;stroke:none" />
    <rect
       style="fill:url(#radialGradient3838);fill-opacity:1;stroke:none"
       id="rect3977"
       width="44"
       height="36"
       x="2"
       y="22"
       rx="3"
       ry="3" />
    <rect
       style="fill:url(#radialGradient3308);fill-opacity:1;stroke:none"
       id="rect3964-1"
       width="40"
       height="5"
       x="4"
       y="24"
       rx="0"
       ry="0" />
    <path
       style="fill:url(#linearGradient3284);fill-opacity:1;stroke:none"
       d="m 5,22 c -1.662,0 -3,1.338 -3,3 l 0,30 c 0,1.662 1.338,3 3,3 l 38,0 c 1.662,0 3,-1.338 3,-3 l 0,-30 c 0,-1.662 -1.338,-3 -3,-3 z m 0,2 38,0 c 0.554,0 1,0.446 1,1 l 0,30 c 0,0.554 -0.446,1 -1,1 L 5,56 C 4.446,56 4,55.554 4,55 L 4,25 c 0,-0.554 0.446,-1 1,-1 z"
       id="path3919-9"
       inkscape:connector-curvature="0"
       sodipodi:nodetypes="ssssssssssssssssss" />
    <g
       id="g4203"
       transform="translate(1,-7)">
      <path
         inkscape:connector-curvature="0"
         style="fill:url(#linearGradient4390);fill-opacity:1;stroke:none"
         d="m 15,32 c -0.554,0 -1,0.446 -1,1 l 0,2.34375 C 13.222639,35.556444 12.465455,35.858384 11.78125,36.25 L 10.125,34.59375 c -0.3917372,-0.391737 -1.0145128,-0.391737 -1.40625,0 l -2.125,2.125 c -0.3917372,0.391737 -0.3917372,1.014513 0,1.40625 L 8.25,39.78125 C 7.8583837,40.465455 7.5564441,41.222639 7.34375,42 L 5,42 c -0.554,0 -1,0.446 -1,1 l 0,3 c 0,0.554 0.446,1 1,1 l 2.34375,0 C 7.5564441,47.777361 7.8583837,48.534545 8.25,49.21875 L 6.59375,50.875 c -0.3917372,0.391737 -0.3917372,1.014513 0,1.40625 l 2.125,2.125 c 0.3917372,0.391737 1.0145128,0.391737 1.40625,0 L 11.78125,52.75 C 12.465455,53.141616 13.222639,53.443556 14,53.65625 L 14,56 c 0,0.554 0.446,1 1,1 l 3,0 c 0.554,0 1,-0.446 1,-1 l 0,-2.34375 c 0.777361,-0.212694 1.534545,-0.514634 2.21875,-0.90625 l 1.65625,1.65625 c 0.391737,0.391737 1.014513,0.391737 1.40625,0 l 2.125,-2.125 c 0.391737,-0.391737 0.391737,-1.014513 0,-1.40625 L 24.75,49.21875 C 25.141616,48.534545 25.443556,47.777361 25.65625,47 L 28,47 c 0.554,0 1,-0.446 1,-1 l 0,-3 c 0,-0.554 -0.446,-1 -1,-1 l -2.34375,0 C 25.443556,41.222639 25.141616,40.465455 24.75,39.78125 L 26.40625,38.125 c 0.391737,-0.391737 0.391737,-1.014513 0,-1.40625 l -2.125,-2.125 c -0.391737,-0.391737 -1.014513,-0.391737 -1.40625,0 L 21.21875,36.25 C 20.534545,35.858384 19.777361,35.556444 19,35.34375 L 19,33 c 0,-0.554 -0.446,-1 -1,-1 l -3,0 z m 1.5,9 C 18.432997,41 20,42.567003 20,44.5 20,46.432997 18.432997,48 16.5,48 14.567003,48 13,46.432997 13,44.5 13,42.567003 14.567003,41 16.5,41 z"
         id="path4379" />
      <path
         style="opacity:0.42670157;fill:#000000;fill-opacity:1;stroke:none"
         d="m 15,32 c -0.554,0 -1,0.446 -1,1 l 0,1 c 0,-0.554 0.446,-1 1,-1 l 3,0 c 0.554,0 1,0.446 1,1 l 0,-1 c 0,-0.554 -0.446,-1 -1,-1 l -3,0 z m -5.5625,2.3125 c -0.2536282,0 -0.5228814,0.08538 -0.71875,0.28125 l -2.125,2.125 c -0.3375853,0.337585 -0.3692529,0.833728 -0.125,1.21875 0.041809,-0.06981 0.064511,-0.158261 0.125,-0.21875 l 2.125,-2.125 c 0.3917372,-0.391737 1.0145128,-0.391737 1.40625,0 L 11.78125,37.25 C 12.465455,36.858384 13.222639,36.556444 14,36.34375 l 0,-1 C 13.222639,35.556444 12.465455,35.858384 11.78125,36.25 L 10.125,34.59375 C 9.9291314,34.397882 9.6911282,34.3125 9.4375,34.3125 z m 14.125,0 c -0.253628,0 -0.491631,0.08538 -0.6875,0.28125 L 21.21875,36.25 C 20.534545,35.858384 19.777361,35.556444 19,35.34375 l 0,1 c 0.777361,0.212694 1.534545,0.514634 2.21875,0.90625 L 22.875,35.59375 c 0.391737,-0.391737 1.014513,-0.391737 1.40625,0 l 2.125,2.125 c 0.06049,0.06049 0.08319,0.148945 0.125,0.21875 0.244253,-0.385022 0.212585,-0.881165 -0.125,-1.21875 l -2.125,-2.125 C 24.085382,34.397882 23.816128,34.3125 23.5625,34.3125 z M 7.90625,40.4375 C 7.6751804,40.93618 7.4901336,41.464993 7.34375,42 L 5,42 c -0.554,0 -1,0.446 -1,1 l 0,1 c 0,-0.554 0.446,-1 1,-1 l 2.34375,0 C 7.5564441,42.222639 7.8583837,41.465455 8.25,40.78125 L 7.90625,40.4375 z m 17.1875,0 L 24.75,40.78125 C 25.141616,41.465455 25.443556,42.222639 25.65625,43 L 28,43 c 0.554,0 1,0.446 1,1 l 0,-1 c 0,-0.554 -0.446,-1 -1,-1 l -2.34375,0 c -0.146384,-0.535007 -0.33143,-1.06382 -0.5625,-1.5625 z M 13.03125,45 C 13.008437,45.161436 13,45.332268 13,45.5 13,47.432997 14.567003,49 16.5,49 18.432997,49 20,47.432997 20,45.5 20,45.332268 19.9916,45.161436 19.96875,45 19.728659,46.699001 18.265265,48 16.5,48 14.734735,48 13.271341,46.699001 13.03125,45 z m -5.125,4.5625 -1.3125,1.3125 c -0.3312484,0.331248 -0.3539511,0.805235 -0.125,1.1875 0.03918,-0.06176 0.070848,-0.133348 0.125,-0.1875 L 8.25,50.21875 C 8.1279079,50.005439 8.0109226,49.788398 7.90625,49.5625 z m 17.1875,0 c -0.104673,0.225898 -0.221658,0.442939 -0.34375,0.65625 l 1.65625,1.65625 c 0.05415,0.05415 0.08582,0.125739 0.125,0.1875 0.228951,-0.382265 0.206248,-0.856252 -0.125,-1.1875 l -1.3125,-1.3125 z"
         id="path4374"
         inkscape:connector-curvature="0" />
      <path
         style="fill:#ffffff;fill-opacity:1;stroke:none;opacity:0.31849913"
         d="m 6.46875,37.9375 c -0.2289511,0.382265 -0.2062484,0.856252 0.125,1.1875 l 1.3125,1.3125 C 8.0109226,40.211602 8.1279079,39.994561 8.25,39.78125 L 6.59375,38.125 C 6.539598,38.07085 6.50793,37.999261 6.46875,37.9375 z m 20.0625,0 c -0.03918,0.06176 -0.07085,0.133348 -0.125,0.1875 L 24.75,39.78125 c 0.122092,0.213311 0.239077,0.430352 0.34375,0.65625 l 1.3125,-1.3125 c 0.331248,-0.331248 0.353951,-0.805235 0.125,-1.1875 z M 16.5,41 c -1.932997,0 -3.5,1.567003 -3.5,3.5 0,0.167732 0.0084,0.338564 0.03125,0.5 0.240091,-1.699001 1.703485,-3 3.46875,-3 1.765265,0 3.228659,1.300999 3.46875,3 C 19.991563,44.838564 20,44.667732 20,44.5 20,42.567003 18.432997,41 16.5,41 z M 4,46 4,47 c 0,0.554 0.446,1 1,1 l 2.34375,0 c 0.1463836,0.535007 0.3314304,1.06382 0.5625,1.5625 L 8.25,49.21875 C 7.8583837,48.534545 7.5564441,47.777361 7.34375,47 L 5,47 C 4.446,47 4,46.554 4,46 z m 25,0 c 0,0.554 -0.446,1 -1,1 l -2.34375,0 c -0.212694,0.777361 -0.514634,1.534545 -0.90625,2.21875 l 0.34375,0.34375 C 25.32482,49.06382 25.509866,48.535007 25.65625,48 L 28,48 c 0.554,0 1,-0.446 1,-1 l 0,-1 z M 6.46875,52.0625 c -0.2442529,0.385022 -0.2125853,0.881165 0.125,1.21875 l 2.125,2.125 c 0.3917372,0.391737 1.0145128,0.391737 1.40625,0 L 11.78125,53.75 c 0.684205,0.391616 1.441389,0.693556 2.21875,0.90625 l 0,-1 C 13.222639,53.443556 12.465455,53.141616 11.78125,52.75 L 10.125,54.40625 c -0.3917372,0.391737 -1.0145128,0.391737 -1.40625,0 l -2.125,-2.125 C 6.533261,52.22076 6.510559,52.132305 6.46875,52.0625 z m 20.0625,0 c -0.04181,0.06981 -0.06451,0.158261 -0.125,0.21875 l -2.125,2.125 c -0.391737,0.391737 -1.014513,0.391737 -1.40625,0 L 21.21875,52.75 C 20.534545,53.141616 19.777361,53.443556 19,53.65625 l 0,1 c 0.777361,-0.212694 1.534545,-0.514634 2.21875,-0.90625 l 1.65625,1.65625 c 0.391737,0.391737 1.014513,0.391737 1.40625,0 l 2.125,-2.125 c 0.337585,-0.337585 0.369253,-0.833728 0.125,-1.21875 z M 14,56 l 0,1 c 0,0.554 0.446,1 1,1 l 3,0 c 0.554,0 1,-0.446 1,-1 l 0,-1 c 0,0.554 -0.446,1 -1,1 l -3,0 c -0.554,0 -1,-0.446 -1,-1 z"
         id="path4181"
         inkscape:connector-curvature="0" />
    </g>
    <g
       id="g3910">
      <path
         id="path3913"
         d="m 32,36 c -0.554,0 -1,0.446 -1,1 l 0,6 -6,0 c -0.554,0 -1,0.446 -1,1 l 0,2 c 0,0.554 0.446,1 1,1 l 6,0 0,6 c 0,0.554 0.446,1 1,1 l 2,0 c 0.554,0 1,-0.446 1,-1 l 0,-6 6,0 c 0.554,0 1,-0.446 1,-1 l 0,-2 c 0,-0.554 -0.446,-1 -1,-1 l -6,0 0,-6 c 0,-0.554 -0.446,-1 -1,-1 l -2,0 z"
         style="fill:#000000;fill-opacity:1;stroke:none;opacity:0.06108202"
         inkscape:connector-curvature="0" />
      <path
         id="path3915"
         d="m 32,37 c -0.554,0 -1,0.446 -1,1 l 0,6 -6,0 c -0.554,0 -1,0.446 -1,1 l 0,2 c 0,0.554 0.446,1 1,1 l 6,0 0,6 c 0,0.554 0.446,1 1,1 l 2,0 c 0.554,0 1,-0.446 1,-1 l 0,-6 6,0 c 0.554,0 1,-0.446 1,-1 l 0,-2 c 0,-0.554 -0.446,-1 -1,-1 l -6,0 0,-6 c 0,-0.554 -0.446,-1 -1,-1 l -2,0 z"
         style="fill:#000000;fill-opacity:1;stroke:none;opacity:0.06108202"
         inkscape:connector-curvature="0" />
      <path
         id="path3917"
         d="m 32,38 c -0.554,0 -1,0.446 -1,1 l 0,6 -6,0 c -0.554,0 -1,0.446 -1,1 l 0,2 c 0,0.554 0.446,1 1,1 l 6,0 0,6 c 0,0.554 0.446,1 1,1 l 2,0 c 0.554,0 1,-0.446 1,-1 l 0,-6 6,0 c 0.554,0 1,-0.446 1,-1 l 0,-2 c 0,-0.554 -0.446,-1 -1,-1 l -6,0 0,-6 c 0,-0.554 -0.446,-1 -1,-1 l -2,0 z"
         style="fill:#000000;fill-opacity:1;stroke:none;opacity:0.06108202"
         inkscape:connector-curvature="0" />
      <path
         inkscape:connector-curvature="0"
         style="fill:#000000;fill-opacity:1;stroke:none;opacity:0.06108202"
         d="m 32,39 c -0.554,0 -1,0.446 -1,1 l 0,6 -6,0 c -0.554,0 -1,0.446 -1,1 l 0,2 c 0,0.554 0.446,1 1,1 l 6,0 0,6 4,0 0,-6 6,0 c 0.554,0 1,-0.446 1,-1 l 0,-2 c 0,-0.554 -0.446,-1 -1,-1 l -6,0 0,-6 c 0,-0.554 -0.446,-1 -1,-1 z"
         id="path3896"
         sodipodi:nodetypes="sscssssccccsssscsss" />
    </g>
    <path
       style="fill:#e7f1a2;fill-opacity:1;stroke:none"
       d="m 32,35 c -0.554,0 -1,0.446 -1,1 l 0,6 -6,0 c -0.554,0 -1,0.446 -1,1 l 0,2 c 0,0.554 0.446,1 1,1 l 6,0 0,6 c 0,0.554 0.446,1 1,1 l 2,0 c 0.554,0 1,-0.446 1,-1 l 0,-6 6,0 c 0.554,0 1,-0.446 1,-1 l 0,-2 c 0,-0.554 -0.446,-1 -1,-1 l -6,0 0,-6 c 0,-0.554 -0.446,-1 -1,-1 l -2,0 z"
       id="rect3851"
       inkscape:connector-curvature="0" />
    <path
       inkscape:connector-curvature="0"
       style="fill:url(#radialGradient3908);fill-opacity:1;stroke:none"
       d="m 32,36 c -0.554,0 -1,0.446 -1,1 l 0,6 -6,0 c -0.554,0 -1,0.446 -1,1 l 0,2 c 0,0.554 0.446,1 1,1 l 6,0 0,6 c 0,0.554 0.446,1 1,1 l 2,0 c 0.554,0 1,-0.446 1,-1 l 0,-6 6,0 c 0.554,0 1,-0.446 1,-1 l 0,-2 c 0,-0.554 -0.446,-1 -1,-1 l -6,0 0,-6 c 0,-0.554 -0.446,-1 -1,-1 l -2,0 z"
       id="path3906" />
  </g>
</svg>
