<?xml version="1.0" encoding="UTF-8" standalone="no"?>
<!-- Created with Inkscape (http://www.inkscape.org/) -->

<svg
   xmlns:dc="http://purl.org/dc/elements/1.1/"
   xmlns:cc="http://creativecommons.org/ns#"
   xmlns:rdf="http://www.w3.org/1999/02/22-rdf-syntax-ns#"
   xmlns:svg="http://www.w3.org/2000/svg"
   xmlns="http://www.w3.org/2000/svg"
   xmlns:xlink="http://www.w3.org/1999/xlink"
   xmlns:sodipodi="http://sodipodi.sourceforge.net/DTD/sodipodi-0.dtd"
   xmlns:inkscape="http://www.inkscape.org/namespaces/inkscape"
   width="48"
   height="48"
   id="svg2985"
   version="1.1"
   inkscape:version="0.48.3.1 r9886"
   sodipodi:docname="wm-settings-window-switcher-dark_48.svg"
   inkscape:export-filename="/media/acw-02/frank-souza/projetos/icones/utt/icons/36/wm-settings-window-switcher-dark_48.png"
   inkscape:export-xdpi="90"
   inkscape:export-ydpi="90">
  <defs
     id="defs2987">
    <linearGradient
       id="linearGradient3859">
      <stop
         style="stop-color:#fc9a14;stop-opacity:1"
         offset="0"
         id="stop3861" />
      <stop
         id="stop3863"
         offset="0.45016977"
         style="stop-color:#a75c39;stop-opacity:1" />
      <stop
         style="stop-color:#333333;stop-opacity:1"
         offset="1"
         id="stop3865" />
    </linearGradient>
    <linearGradient
       id="linearGradient3935"
       inkscape:collect="always">
      <stop
         id="stop3937"
         offset="0"
         style="stop-color:#82817b;stop-opacity:1" />
      <stop
         id="stop3939"
         offset="1"
         style="stop-color:#d2cecb;stop-opacity:1" />
    </linearGradient>
    <linearGradient
       inkscape:collect="always"
       id="linearGradient3915">
      <stop
         style="stop-color:#e55c2d;stop-opacity:1"
         offset="0"
         id="stop3917" />
      <stop
         style="stop-color:#ecaa62;stop-opacity:1"
         offset="1"
         id="stop3919" />
    </linearGradient>
    <linearGradient
       id="linearGradient3927-5"
       inkscape:collect="always">
      <stop
         id="stop3929-2"
         offset="0"
         style="stop-color:#eaeaea;stop-opacity:1" />
      <stop
         style="stop-color:#a4a4a4;stop-opacity:1"
         offset="0.17647059"
         id="stop3931-3" />
      <stop
         style="stop-color:#bcbcbc;stop-opacity:1"
         offset="0.34482759"
         id="stop3933-0" />
      <stop
         style="stop-color:#929292;stop-opacity:1"
         offset="0.51724136"
         id="stop3935-3" />
      <stop
         id="stop3937-3"
         offset="0.67647058"
         style="stop-color:#b9b9b9;stop-opacity:1" />
      <stop
         style="stop-color:#959595;stop-opacity:1"
         offset="0.82758623"
         id="stop3939-5" />
      <stop
         id="stop3941-0"
         offset="1"
         style="stop-color:#e3e3e3;stop-opacity:1" />
    </linearGradient>
    <linearGradient
       inkscape:collect="always"
       id="linearGradient4030-7">
      <stop
         style="stop-color:#000000;stop-opacity:1;"
         offset="0"
         id="stop4032-1" />
      <stop
         style="stop-color:#000000;stop-opacity:0;"
         offset="1"
         id="stop4034-3" />
    </linearGradient>
    <linearGradient
       inkscape:collect="always"
       xlink:href="#linearGradient3927-5"
       id="linearGradient3284"
       gradientUnits="userSpaceOnUse"
       gradientTransform="translate(0,17)"
       x1="2"
       y1="5"
       x2="46"
       y2="41" />
    <linearGradient
       inkscape:collect="always"
       xlink:href="#linearGradient4030-7"
       id="linearGradient3291"
       gradientUnits="userSpaceOnUse"
       gradientTransform="translate(2,13)"
       x1="6"
       y1="45"
       x2="6"
       y2="46" />
    <linearGradient
       inkscape:collect="always"
       id="linearGradient3981-8">
      <stop
         style="stop-color:#000000;stop-opacity:0.29232112"
         offset="0"
         id="stop3983-8" />
      <stop
         style="stop-color:#000000;stop-opacity:0;"
         offset="1"
         id="stop3985-4" />
    </linearGradient>
    <radialGradient
       r="17"
       fy="26.299978"
       fx="14.749997"
       cy="26.299978"
       cx="14.749997"
       gradientTransform="matrix(1.0300234e-5,0.29411761,-1.2456747,0,57.937538,19.661767)"
       gradientUnits="userSpaceOnUse"
       id="radialGradient3308"
       xlink:href="#linearGradient3981-8"
       inkscape:collect="always" />
    <linearGradient
       inkscape:collect="always"
       id="linearGradient3842">
      <stop
         style="stop-color:#7f7e75;stop-opacity:1"
         offset="0"
         id="stop3844" />
      <stop
         style="stop-color:#3d3c38;stop-opacity:1"
         offset="1"
         id="stop3846" />
    </linearGradient>
    <linearGradient
       inkscape:collect="always"
       id="linearGradient3820">
      <stop
         style="stop-color:#f2f1f0;stop-opacity:1;"
         offset="0"
         id="stop3822" />
      <stop
         style="stop-color:#c3beba;stop-opacity:1"
         offset="1"
         id="stop3824" />
    </linearGradient>
    <linearGradient
       inkscape:collect="always"
       xlink:href="#linearGradient3915"
       id="linearGradient3984"
       gradientUnits="userSpaceOnUse"
       gradientTransform="translate(8,17)"
       x1="8"
       y1="29"
       x2="8"
       y2="27" />
    <linearGradient
       inkscape:collect="always"
       xlink:href="#linearGradient3915"
       id="linearGradient3987"
       gradientUnits="userSpaceOnUse"
       gradientTransform="translate(16,0)"
       x1="8"
       y1="29"
       x2="8"
       y2="27" />
    <linearGradient
       inkscape:collect="always"
       xlink:href="#linearGradient3935"
       id="linearGradient3990"
       gradientUnits="userSpaceOnUse"
       gradientTransform="translate(14,17)"
       x1="8"
       y1="29"
       x2="8"
       y2="27" />
    <linearGradient
       inkscape:collect="always"
       xlink:href="#linearGradient3935"
       id="linearGradient3993"
       gradientUnits="userSpaceOnUse"
       gradientTransform="translate(22,0)"
       x1="8"
       y1="29"
       x2="8"
       y2="27" />
    <linearGradient
       inkscape:collect="always"
       xlink:href="#linearGradient3935"
       id="linearGradient3996"
       gradientUnits="userSpaceOnUse"
       gradientTransform="translate(6,0)"
       x1="8"
       y1="29"
       x2="8"
       y2="27" />
    <linearGradient
       inkscape:collect="always"
       xlink:href="#linearGradient3935"
       id="linearGradient3999"
       gradientUnits="userSpaceOnUse"
       gradientTransform="translate(11,17)"
       x1="8"
       y1="29"
       x2="8"
       y2="27" />
    <linearGradient
       inkscape:collect="always"
       xlink:href="#linearGradient3935"
       id="linearGradient4002"
       gradientUnits="userSpaceOnUse"
       gradientTransform="translate(19,0)"
       x1="8"
       y1="29"
       x2="8"
       y2="27" />
    <linearGradient
       inkscape:collect="always"
       xlink:href="#linearGradient3935"
       id="linearGradient4005"
       gradientUnits="userSpaceOnUse"
       gradientTransform="translate(3,0)"
       x1="8"
       y1="29"
       x2="8"
       y2="27" />
    <linearGradient
       inkscape:collect="always"
       xlink:href="#linearGradient3915"
       id="linearGradient4008"
       gradientUnits="userSpaceOnUse"
       x1="8"
       y1="29"
       x2="8"
       y2="27" />
    <linearGradient
       inkscape:collect="always"
       xlink:href="#linearGradient3842"
       id="linearGradient4011"
       gradientUnits="userSpaceOnUse"
       gradientTransform="translate(-8,17)"
       x1="31"
       y1="26"
       x2="31"
       y2="30" />
    <linearGradient
       inkscape:collect="always"
       xlink:href="#linearGradient3820"
       id="linearGradient4014"
       gradientUnits="userSpaceOnUse"
       gradientTransform="translate(-8,0)"
       x1="35"
       y1="46"
       x2="35"
       y2="54" />
    <linearGradient
       inkscape:collect="always"
       xlink:href="#linearGradient3842"
       id="linearGradient4017"
       gradientUnits="userSpaceOnUse"
       x1="31"
       y1="26"
       x2="31"
       y2="30" />
    <linearGradient
       inkscape:collect="always"
       xlink:href="#linearGradient3842"
       id="linearGradient4020"
       gradientUnits="userSpaceOnUse"
       gradientTransform="translate(-15,0)"
       x1="31"
       y1="26"
       x2="31"
       y2="30" />
    <linearGradient
       inkscape:collect="always"
       xlink:href="#linearGradient3820"
       id="linearGradient4023"
       gradientUnits="userSpaceOnUse"
       gradientTransform="translate(-15,0)"
       x1="32"
       y1="30"
       x2="32"
       y2="40" />
    <linearGradient
       inkscape:collect="always"
       xlink:href="#linearGradient3820"
       id="linearGradient4027"
       gradientUnits="userSpaceOnUse"
       x1="32"
       y1="30"
       x2="32"
       y2="40" />
    <radialGradient
       inkscape:collect="always"
       xlink:href="#linearGradient3859"
       id="radialGradient4032"
       gradientUnits="userSpaceOnUse"
       gradientTransform="matrix(3.9777814e-8,2.5454546,-1.9545455,3.0543679e-8,63.959595,-37.090912)"
       cx="24"
       cy="20.444445"
       fx="24"
       fy="20.444445"
       r="22" />
  </defs>
  <sodipodi:namedview
     id="base"
     pagecolor="#ffffff"
     bordercolor="#666666"
     borderopacity="1.0"
     inkscape:pageopacity="0"
     inkscape:pageshadow="2"
     inkscape:zoom="11.313708"
     inkscape:cx="14.61452"
     inkscape:cy="26.641658"
     inkscape:current-layer="layer1"
     showgrid="true"
     inkscape:document-units="px"
     inkscape:grid-bbox="true"
     inkscape:window-width="1920"
     inkscape:window-height="1021"
     inkscape:window-x="-4"
     inkscape:window-y="32"
     inkscape:window-maximized="1"
     inkscape:showpageshadow="false"
     showborder="true">
    <inkscape:grid
       type="xygrid"
       id="grid2982"
       empspacing="5"
       visible="true"
       enabled="true"
       snapvisiblegridlinesonly="true" />
  </sodipodi:namedview>
  <metadata
     id="metadata2990">
    <rdf:RDF>
      <cc:Work
         rdf:about="">
        <dc:format>image/svg+xml</dc:format>
        <dc:type
           rdf:resource="http://purl.org/dc/dcmitype/StillImage" />
        <dc:title />
      </cc:Work>
    </rdf:RDF>
  </metadata>
  <g
     id="layer1"
     inkscape:label="Layer 1"
     inkscape:groupmode="layer"
     transform="translate(0,-16)">
    <rect
       style="opacity:0.68499122;fill:url(#linearGradient3291);fill-opacity:1;stroke:none"
       id="rect4020-0"
       width="42"
       height="2"
       x="3"
       y="57"
       rx="1"
       ry="0.9375" />
    <rect
       ry="3"
       rx="3"
       y="20"
       x="2"
       height="36"
       width="44"
       id="rect3943-4"
       style="fill:#ffffff;fill-opacity:1;stroke:none" />
    <rect
       style="fill:url(#radialGradient4032);fill-opacity:1;stroke:none"
       id="rect3977-7"
       width="44"
       height="36"
       x="2"
       y="22"
       rx="3"
       ry="3" />
    <rect
       style="fill:url(#radialGradient3308);fill-opacity:1;stroke:none"
       id="rect3964-1"
       width="40"
       height="5"
       x="4"
       y="24"
       rx="0"
       ry="0" />
    <path
       style="opacity:0.14397906;fill:#4d4d4d;fill-opacity:1;stroke:#000000;stroke-width:2;stroke-miterlimit:4;stroke-opacity:1;stroke-dasharray:none"
       d="m 23,26 18,0 c 0.554,0 0.997411,0.446006 1,1 l 0,13 -20,0 0,-13 c 0,-0.554 0.446,-1 1,-1 z"
       id="path3973"
       inkscape:connector-curvature="0"
       sodipodi:nodetypes="sssccss" />
    <path
       sodipodi:nodetypes="sssccss"
       inkscape:connector-curvature="0"
       id="path3885"
       d="m 15,43 18,0 c 0.554,0 1,0.446 1,1 l 0,10 -20,0 0,-10 c 0,-0.554 0.446,-1 1,-1 z"
       style="opacity:0.14397906;fill:#4d4d4d;fill-opacity:1;stroke:#000000;stroke-width:2;stroke-miterlimit:4;stroke-opacity:1;stroke-dasharray:none" />
    <path
       sodipodi:nodetypes="sssccss"
       inkscape:connector-curvature="0"
       id="path3881"
       d="m 23,26 18,0 c 0.554,0 1,0.446 1,1 l 0,13 -20,0 0,-13 c 0,-0.554 0.446,-1 1,-1 z"
       style="fill:url(#linearGradient4027);fill-opacity:1;stroke:none" />
    <path
       style="opacity:0.14397906;fill:#4d4d4d;fill-opacity:1;stroke:#000000;stroke-width:2;stroke-miterlimit:4;stroke-opacity:1;stroke-dasharray:none"
       d="m 7,26 11,0 c 0.554,0 1,0.446 1,1 L 19,40 6,40 6,27 c 0,-0.554 0.446,-1 1,-1 z"
       id="path3971"
       inkscape:connector-curvature="0"
       sodipodi:nodetypes="sssccss" />
    <path
       style="fill:url(#linearGradient4023);fill-opacity:1;stroke:none"
       d="m 7,26 11,0 c 0.554,0 1,0.446 1,1 L 19,40 6,40 6,27 c 0,-0.554 0.446,-1 1,-1 z"
       id="path3967"
       inkscape:connector-curvature="0"
       sodipodi:nodetypes="sssccss" />
    <path
       sodipodi:nodetypes="sssccss"
       inkscape:connector-curvature="0"
       id="path3889"
       d="m 7,26 11,0 c 0.554,0 1,0.446 1,1 l 0,3 -13,0 0,-3 c 0,-0.554 0.446,-1 1,-1 z"
       style="fill:url(#linearGradient4020);fill-opacity:1;stroke:none" />
    <path
       sodipodi:nodetypes="sssccss"
       inkscape:connector-curvature="0"
       id="path3893"
       d="m 23,26 18,0 c 0.554,0 1,0.446 1,1 l 0,3 -20,0 0,-3 c 0,-0.554 0.446,-1 1,-1 z"
       style="fill:url(#linearGradient4017);fill-opacity:1;stroke:none" />
    <path
       sodipodi:nodetypes="sssccss"
       inkscape:connector-curvature="0"
       id="rect3866"
       d="m 15,43 18,0 c 0.554,0 1,0.446 1,1 l 0,10 -20,0 0,-10 c 0,-0.554 0.446,-1 1,-1 z"
       style="fill:url(#linearGradient4014);fill-opacity:1;stroke:none" />
    <path
       style="fill:url(#linearGradient4011);fill-opacity:1;stroke:none"
       d="m 15,43 18,0 c 0.554,0 1,0.446 1,1 l 0,3 -20,0 0,-3 c 0,-0.554 0.446,-1 1,-1 z"
       id="path3869"
       inkscape:connector-curvature="0"
       sodipodi:nodetypes="sssccss" />
    <path
       inkscape:connector-curvature="0"
       style="fill:url(#linearGradient4008);fill-opacity:1;stroke:none"
       d="m 9,28 c 0,0.552285 -0.447715,1 -1,1 -0.552285,0 -1,-0.447715 -1,-1 0,-0.552285 0.447715,-1 1,-1 0.552285,0 1,0.447715 1,1 z"
       id="path3931" />
    <path
       id="path3945"
       d="m 12,28 c 0,0.552285 -0.447715,1 -1,1 -0.552285,0 -1,-0.447715 -1,-1 0,-0.552285 0.447715,-1 1,-1 0.552285,0 1,0.447715 1,1 z"
       style="fill:url(#linearGradient4005);fill-opacity:1;stroke:none"
       inkscape:connector-curvature="0" />
    <path
       id="path3953"
       d="m 28,28 c 0,0.552285 -0.447715,1 -1,1 -0.552285,0 -1,-0.447715 -1,-1 0,-0.552285 0.447715,-1 1,-1 0.552285,0 1,0.447715 1,1 z"
       style="fill:url(#linearGradient4002);fill-opacity:1;stroke:none"
       inkscape:connector-curvature="0" />
    <path
       inkscape:connector-curvature="0"
       style="fill:url(#linearGradient3999);fill-opacity:1;stroke:none"
       d="m 20,45 c 0,0.552285 -0.447715,1 -1,1 -0.552285,0 -1,-0.447715 -1,-1 0,-0.552285 0.447715,-1 1,-1 0.552285,0 1,0.447715 1,1 z"
       id="path3941" />
    <path
       inkscape:connector-curvature="0"
       style="fill:url(#linearGradient3996);fill-opacity:1;stroke:none"
       d="m 15,28 c 0,0.552285 -0.447715,1 -1,1 -0.552285,0 -1,-0.447715 -1,-1 0,-0.552285 0.447715,-1 1,-1 0.552285,0 1,0.447715 1,1 z"
       id="path3949" />
    <path
       inkscape:connector-curvature="0"
       style="fill:url(#linearGradient3993);fill-opacity:1;stroke:none"
       d="m 31,28 c 0,0.552285 -0.447715,1 -1,1 -0.552285,0 -1,-0.447715 -1,-1 0,-0.552285 0.447715,-1 1,-1 0.552285,0 1,0.447715 1,1 z"
       id="path3957" />
    <path
       id="path3923"
       d="m 23,45 c 0,0.552285 -0.447715,1 -1,1 -0.552285,0 -1,-0.447715 -1,-1 0,-0.552285 0.447715,-1 1,-1 0.552285,0 1,0.447715 1,1 z"
       style="fill:url(#linearGradient3990);fill-opacity:1;stroke:none"
       inkscape:connector-curvature="0" />
    <path
       id="path3927"
       d="m 25,28 c 0,0.552285 -0.447715,1 -1,1 -0.552285,0 -1,-0.447715 -1,-1 0,-0.552285 0.447715,-1 1,-1 0.552285,0 1,0.447715 1,1 z"
       style="fill:url(#linearGradient3987);fill-opacity:1;stroke:none"
       inkscape:connector-curvature="0" />
    <path
       inkscape:connector-curvature="0"
       style="fill:url(#linearGradient3984);fill-opacity:1;stroke:none"
       d="m 17,45 c 0,0.552285 -0.447715,1 -1,1 -0.552285,0 -1,-0.447715 -1,-1 0,-0.552285 0.447715,-1 1,-1 0.552285,0 1,0.447715 1,1 z"
       id="path3832-2" />
    <path
       style="fill:url(#linearGradient3284);fill-opacity:1;stroke:none"
       d="m 5,22 c -1.662,0 -3,1.338 -3,3 l 0,30 c 0,1.662 1.338,3 3,3 l 38,0 c 1.662,0 3,-1.338 3,-3 l 0,-30 c 0,-1.662 -1.338,-3 -3,-3 z m 0,2 38,0 c 0.554,0 1,0.446 1,1 l 0,30 c 0,0.554 -0.446,1 -1,1 L 5,56 C 4.446,56 4,55.554 4,55 L 4,25 c 0,-0.554 0.446,-1 1,-1 z"
       id="path3919-9"
       inkscape:connector-curvature="0"
       sodipodi:nodetypes="ssssssssssssssssss" />
  </g>
</svg>
