<?xml version="1.0" encoding="UTF-8" standalone="no"?>
<!-- Created with Inkscape (http://www.inkscape.org/) -->

<svg
   xmlns:dc="http://purl.org/dc/elements/1.1/"
   xmlns:cc="http://creativecommons.org/ns#"
   xmlns:rdf="http://www.w3.org/1999/02/22-rdf-syntax-ns#"
   xmlns:svg="http://www.w3.org/2000/svg"
   xmlns="http://www.w3.org/2000/svg"
   xmlns:sodipodi="http://sodipodi.sourceforge.net/DTD/sodipodi-0.dtd"
   xmlns:inkscape="http://www.inkscape.org/namespaces/inkscape"
   width="24"
   height="24"
   id="svg2985"
   version="1.1"
   inkscape:version="0.48.4 r9939"
   sodipodi:docname="home-light_36.svg">
  <defs
     id="defs2987" />
  <sodipodi:namedview
     id="base"
     pagecolor="#777777"
     bordercolor="#666666"
     borderopacity="1.0"
     inkscape:pageopacity="0.46666667"
     inkscape:pageshadow="2"
     inkscape:zoom="11"
     inkscape:cx="-20.181587"
     inkscape:cy="17.408676"
     inkscape:current-layer="layer1"
     showgrid="true"
     inkscape:document-units="px"
     inkscape:grid-bbox="true"
     inkscape:window-width="1301"
     inkscape:window-height="744"
     inkscape:window-x="65"
     inkscape:window-y="24"
     inkscape:window-maximized="1">
    <inkscape:grid
       type="xygrid"
       id="grid2982"
       empspacing="5"
       visible="true"
       enabled="true"
       snapvisiblegridlinesonly="true" />
  </sodipodi:namedview>
  <metadata
     id="metadata2990">
    <rdf:RDF>
      <cc:Work
         rdf:about="">
        <dc:format>image/svg+xml</dc:format>
        <dc:type
           rdf:resource="http://purl.org/dc/dcmitype/StillImage" />
        <dc:title></dc:title>
      </cc:Work>
    </rdf:RDF>
  </metadata>
  <g
     id="layer1"
     inkscape:label="Layer 1"
     inkscape:groupmode="layer"
     transform="translate(0,-40)">
    <path
       style="font-size:medium;font-style:normal;font-variant:normal;font-weight:normal;font-stretch:normal;text-indent:0;text-align:start;text-decoration:none;line-height:normal;letter-spacing:normal;word-spacing:normal;text-transform:none;direction:ltr;block-progression:tb;writing-mode:lr-tb;text-anchor:start;baseline-shift:baseline;color:#000000;fill:#eae9e7;fill-opacity:1;fill-rule:nonzero;stroke:none;stroke-width:2;marker:none;visibility:visible;display:inline;overflow:visible;enable-background:accumulate;font-family:Sans;-inkscape-font-specification:Sans"
       d="m 11.981145,42.006956 c -0.09874,0.0164 -0.193371,0.05696 -0.273342,0.117147 l -9.9965217,8.746956 c -0.4280092,0.307232 -0.1558678,1.13798 0.3709646,1.132419 L 4.2216253,52 l 0,8.571429 c 0,0.714285 0,1.428571 1.4285715,1.428571 l 2.8571427,0 c 0.714286,0 1.428673,0 1.428572,-0.714286 l -8.58e-4,-6.041884 c 8.58e-4,-1.100973 8.58e-4,-1.100973 0.7151425,-1.100973 l 2.857143,0 c 0.714286,0 0.714286,0 0.715143,1.100973 l -8.57e-4,6.041884 C 14.221523,62 14.935911,62 15.650196,62 l 2.857143,0 c 1.428572,0 1.428572,-1.428571 1.428572,-1.428571 l 0,-8.571429 2.139379,0.0035 c 0.526833,0.0056 0.798973,-0.825186 0.370964,-1.132419 l -9.996521,-8.746978 c -0.132414,-0.09896 -0.305183,-0.142154 -0.468588,-0.117147 z"
       id="path3844"
       inkscape:connector-curvature="0"
       sodipodi:nodetypes="cccccssssccccssscccccc" />
  </g>
</svg>
