<?xml version="1.0" encoding="UTF-8" standalone="no"?>
<!-- Created with Inkscape (http://www.inkscape.org/) -->

<svg
   xmlns:dc="http://purl.org/dc/elements/1.1/"
   xmlns:cc="http://creativecommons.org/ns#"
   xmlns:rdf="http://www.w3.org/1999/02/22-rdf-syntax-ns#"
   xmlns:svg="http://www.w3.org/2000/svg"
   xmlns="http://www.w3.org/2000/svg"
   xmlns:sodipodi="http://sodipodi.sourceforge.net/DTD/sodipodi-0.dtd"
   xmlns:inkscape="http://www.inkscape.org/namespaces/inkscape"
   width="24"
   height="24"
   id="svg2985"
   version="1.1"
   inkscape:version="0.48.4 r9939"
   sodipodi:docname="overview-light_36.svg">
  <defs
     id="defs2987" />
  <sodipodi:namedview
     id="base"
     pagecolor="#777777"
     bordercolor="#666666"
     borderopacity="1.0"
     inkscape:pageopacity="0.46666667"
     inkscape:pageshadow="2"
     inkscape:zoom="22"
     inkscape:cx="24.145495"
     inkscape:cy="7.819574"
     inkscape:current-layer="layer1"
     showgrid="true"
     inkscape:document-units="px"
     inkscape:grid-bbox="true"
     inkscape:window-width="1301"
     inkscape:window-height="744"
     inkscape:window-x="65"
     inkscape:window-y="24"
     inkscape:window-maximized="1">
    <inkscape:grid
       type="xygrid"
       id="grid2982"
       empspacing="5"
       visible="true"
       enabled="true"
       snapvisiblegridlinesonly="true" />
  </sodipodi:namedview>
  <metadata
     id="metadata2990">
    <rdf:RDF>
      <cc:Work
         rdf:about="">
        <dc:format>image/svg+xml</dc:format>
        <dc:type
           rdf:resource="http://purl.org/dc/dcmitype/StillImage" />
        <dc:title></dc:title>
      </cc:Work>
    </rdf:RDF>
  </metadata>
  <g
     id="layer1"
     inkscape:label="Layer 1"
     inkscape:groupmode="layer"
     transform="translate(0,-40)">
    <g
       id="g3760"
       transform="matrix(0.66666667,0,0,0.66666667,-0.3333334,21)">
      <path
         sodipodi:nodetypes="sssssssss"
         inkscape:connector-curvature="0"
         id="path4272"
         d="m 11,48 c 0,0.471405 0.528595,1 1,1 1,0 3,0 4,0 0.471405,0 1,-0.528595 1,-1 0,-1 0,-2 0,-3 0,-0.471405 -0.528595,-1 -1,-1 -1,0 -3,0 -4,0 -0.471405,0 -1,0.528595 -1,1 0,1 0,2 0,3 z"
         style="fill:#eae9e7;fill-opacity:1;stroke:none" />
      <path
         style="fill:#eae9e7;fill-opacity:1;stroke:none"
         d="m 11,40 c 0,0.471405 0.528595,1 1,1 1,0 3,0 4,0 0.471405,0 1,-0.528595 1,-1 0,-1 0,-2 0,-3 0,-0.471405 -0.528595,-1 -1,-1 -1,0 -3,0 -4,0 -0.471405,0 -1,0.528595 -1,1 0,1 0,2 0,3 z"
         id="path4274"
         inkscape:connector-curvature="0"
         sodipodi:nodetypes="sssssssss" />
      <path
         style="fill:#eae9e7;fill-opacity:1;stroke:none"
         d="m 11,56 c 0,0.471405 0.528595,1 1,1 1,0 3,0 4,0 0.471405,0 1,-0.528595 1,-1 0,-1 0,-2 0,-3 0,-0.471405 -0.528595,-1 -1,-1 -1,0 -3,0 -4,0 -0.471405,0 -1,0.528595 -1,1 0,1 0,2 0,3 z"
         id="path3003"
         inkscape:connector-curvature="0"
         sodipodi:nodetypes="sssssssss" />
      <path
         style="fill:#eae9e7;fill-opacity:1;stroke:none"
         d="m 2,48 c 0,0.471405 0.528595,1 1,1 1,0 3,0 4,0 0.471405,0 1,-0.528595 1,-1 0,-1 0,-2 0,-3 0,-0.471405 -0.528595,-1 -1,-1 -1,0 -3,0 -4,0 -0.471405,0 -1,0.528595 -1,1 0,1 0,2 0,3 z"
         id="path3012"
         inkscape:connector-curvature="0"
         sodipodi:nodetypes="sssssssss" />
      <path
         sodipodi:nodetypes="sssssssss"
         inkscape:connector-curvature="0"
         id="path3014"
         d="m 2,40 c 0,0.471405 0.528595,1 1,1 1,0 3,0 4,0 0.471405,0 1,-0.528595 1,-1 0,-1 0,-2 0,-3 0,-0.471405 -0.528595,-1 -1,-1 -1,0 -3,0 -4,0 -0.471405,0 -1,0.528595 -1,1 0,1 0,2 0,3 z"
         style="fill:#eae9e7;fill-opacity:1;stroke:none" />
      <path
         sodipodi:nodetypes="sssssssss"
         inkscape:connector-curvature="0"
         id="path3016"
         d="m 2,56 c 0,0.471405 0.528595,1 1,1 1,0 3,0 4,0 0.471405,0 1,-0.528595 1,-1 0,-1 0,-2 0,-3 0,-0.471405 -0.528595,-1 -1,-1 -1,0 -3,0 -4,0 -0.471405,0 -1,0.528595 -1,1 0,1 0,2 0,3 z"
         style="fill:#eae9e7;fill-opacity:1;stroke:none" />
      <path
         sodipodi:nodetypes="sssssssss"
         inkscape:connector-curvature="0"
         id="path3020"
         d="m 20,48 c 0,0.471405 0.528595,1 1,1 1,0 3,0 4,0 0.471405,0 1,-0.528595 1,-1 0,-1 0,-2 0,-3 0,-0.471405 -0.528595,-1 -1,-1 -1,0 -3,0 -4,0 -0.471405,0 -1,0.528595 -1,1 0,1 0,2 0,3 z"
         style="fill:#eae9e7;fill-opacity:1;stroke:none" />
      <path
         style="fill:#eae9e7;fill-opacity:1;stroke:none"
         d="m 20,40 c 0,0.471405 0.528595,1 1,1 1,0 3,0 4,0 0.471405,0 1,-0.528595 1,-1 0,-1 0,-2 0,-3 0,-0.471405 -0.528595,-1 -1,-1 -1,0 -3,0 -4,0 -0.471405,0 -1,0.528595 -1,1 0,1 0,2 0,3 z"
         id="path3022"
         inkscape:connector-curvature="0"
         sodipodi:nodetypes="sssssssss" />
      <path
         sodipodi:nodetypes="sssssssss"
         inkscape:connector-curvature="0"
         id="path3004"
         d="m 29,40 c 0,0.471405 0.528595,1 1,1 1,0 3,0 4,0 0.471405,0 1,-0.528595 1,-1 0,-1 0,-2 0,-3 0,-0.471405 -0.528595,-1 -1,-1 -1,0 -3,0 -4,0 -0.471405,0 -1,0.528595 -1,1 0,1 0,2 0,3 z"
         style="fill:#eae9e7;fill-opacity:1;stroke:none" />
    </g>
  </g>
</svg>
