<?xml version="1.0" encoding="UTF-8" standalone="no"?>
<!-- Created with Inkscape (http://www.inkscape.org/) -->

<svg
   xmlns:dc="http://purl.org/dc/elements/1.1/"
   xmlns:cc="http://creativecommons.org/ns#"
   xmlns:rdf="http://www.w3.org/1999/02/22-rdf-syntax-ns#"
   xmlns:svg="http://www.w3.org/2000/svg"
   xmlns="http://www.w3.org/2000/svg"
   xmlns:sodipodi="http://sodipodi.sourceforge.net/DTD/sodipodi-0.dtd"
   xmlns:inkscape="http://www.inkscape.org/namespaces/inkscape"
   width="24"
   height="24"
   id="svg2985"
   version="1.1"
   inkscape:version="0.48.4 r9939"
   sodipodi:docname="unity-settings-dark_24.svg">
  <defs
     id="defs2987" />
  <sodipodi:namedview
     id="base"
     pagecolor="#777777"
     bordercolor="#666666"
     borderopacity="1.0"
     inkscape:pageopacity="0.46666667"
     inkscape:pageshadow="2"
     inkscape:zoom="30.304577"
     inkscape:cx="11.127398"
     inkscape:cy="14.615491"
     inkscape:current-layer="layer1"
     showgrid="true"
     inkscape:document-units="px"
     inkscape:grid-bbox="true"
     inkscape:window-width="1301"
     inkscape:window-height="744"
     inkscape:window-x="65"
     inkscape:window-y="24"
     inkscape:window-maximized="1">
    <inkscape:grid
       type="xygrid"
       id="grid2982"
       empspacing="5"
       visible="true"
       enabled="true"
       snapvisiblegridlinesonly="true" />
  </sodipodi:namedview>
  <metadata
     id="metadata2990">
    <rdf:RDF>
      <cc:Work
         rdf:about="">
        <dc:format>image/svg+xml</dc:format>
        <dc:type
           rdf:resource="http://purl.org/dc/dcmitype/StillImage" />
        <dc:title />
      </cc:Work>
    </rdf:RDF>
  </metadata>
  <g
     id="layer1"
     inkscape:label="Layer 1"
     inkscape:groupmode="layer"
     transform="translate(0,-40)">
    <g
       id="g2988"
       transform="matrix(0.63636363,0,0,0.64285715,0.54545427,21.785714)"
       style="fill:#333333;fill-opacity:1">
      <g
         transform="matrix(2.8319981,0,0,2.7999983,-15.089585,-95.799902)"
         id="text2986"
         style="font-size:18.83239174px;font-style:normal;font-variant:normal;font-weight:normal;font-stretch:normal;line-height:125%;letter-spacing:0px;word-spacing:0px;fill:#333333;fill-opacity:1;stroke:none;font-family:Ubuntu;-inkscape-font-specification:Ubuntu">
        <path
           sodipodi:nodetypes="ccscscsccscsccccccc"
           id="path2991"
           style="fill:#333333;fill-opacity:1"
           d="m 15.485975,55.510357 c -0.401767,0.10044 -0.852964,0.207156 -1.518367,0.320151 -0.652863,0.112994 -1.271192,0.169491 -2.137476,0.169491 -0.7533,0 -1.387324,-0.106717 -1.9020717,-0.32015 C 9.4133053,55.45386 8.9989931,55.139987 8.6851225,54.738229 8.3712473,54.336473 8.1452588,53.865663 8.0071564,53.3258 7.8690507,52.773386 7.7999987,52.164472 7.8000001,51.499058 l 0,-5.499059 1.7655377,-6e-6 0,5.122411 c 0,1.192721 0.1741953,2.046462 0.5508462,2.561211 0.376644,0.514754 1.010667,0.772129 1.902072,0.772128 0.188318,1e-6 0.382919,-0.0063 0.583804,-0.01883 0.200872,-0.01255 0.389196,-0.02511 0.564972,-0.03767 0.175762,-0.02511 0.332698,-0.04394 0.470809,-0.0565 0.150652,-0.02511 0.102006,-0.05022 0.164788,-0.07533 l 0,-8.26742 1.765538,0 -0.08239,9.510357"
           inkscape:connector-curvature="0" />
      </g>
      <path
         sodipodi:nodetypes="sssscscs"
         inkscape:connector-curvature="0"
         id="path4270"
         d="m 15,49 c 0,-0.471002 0.527289,-1 0.998291,-1 C 17,48 19,48 20,48 c 0.471405,0 1,0.528595 1,1 0,2 0,3.817657 0,3.817657 0,0 -3.335201,0.55543 -4.875,-0.08238 C 15.689479,52.554882 15,52.016531 15,51.016531 15,50.016531 15,50 15,49 z"
         style="fill:#333333;fill-opacity:1;stroke:none" />
      <path
         sodipodi:nodetypes="sssssssss"
         inkscape:connector-curvature="0"
         id="path4272"
         d="m 15,45 c 0,0.471405 0.528595,1 1,1 1,0 3,0 4,0 0.471405,0 1,-0.528595 1,-1 0,-1 0,-2 0,-3 0,-0.471405 -0.528595,-1 -1,-1 -1,0 -3,0 -4,0 -0.471405,0 -1,0.528595 -1,1 0,1 0,2 0,3 z"
         style="fill:#333333;fill-opacity:1;stroke:none" />
      <path
         style="fill:#333333;fill-opacity:1;stroke:none"
         d="m 15,38 c 0,0.471405 0.528595,1 1,1 1,0 3,0 4,0 0.471405,0 1,-0.528595 1,-1 0,-1 0,-2 0,-3 0,-0.471405 -0.528595,-1 -1,-1 -1,0 -3,0 -4,0 -0.471405,0 -1,0.528595 -1,1 0,1 0,2 0,3 z"
         id="path4274"
         inkscape:connector-curvature="0"
         sodipodi:nodetypes="sssssssss" />
    </g>
  </g>
</svg>
