<?xml version="1.0" encoding="UTF-8" standalone="no"?>
<!-- Created with Inkscape (http://www.inkscape.org/) -->

<svg
   xmlns:dc="http://purl.org/dc/elements/1.1/"
   xmlns:cc="http://creativecommons.org/ns#"
   xmlns:rdf="http://www.w3.org/1999/02/22-rdf-syntax-ns#"
   xmlns:svg="http://www.w3.org/2000/svg"
   xmlns="http://www.w3.org/2000/svg"
   xmlns:xlink="http://www.w3.org/1999/xlink"
   xmlns:sodipodi="http://sodipodi.sourceforge.net/DTD/sodipodi-0.dtd"
   xmlns:inkscape="http://www.inkscape.org/namespaces/inkscape"
   width="36"
   height="36"
   id="svg2985"
   version="1.1"
   inkscape:version="0.48.4 r9939"
   sodipodi:docname="appearance-settings-window-controls-dark_36.svg">
  <defs
     id="defs2987">
    <linearGradient
       id="linearGradient3765">
      <stop
         style="stop-color:#dd4814;stop-opacity:1;"
         offset="0"
         id="stop3767" />
      <stop
         style="stop-color:#e96638;stop-opacity:1;"
         offset="1"
         id="stop3769" />
    </linearGradient>
    <radialGradient
       inkscape:collect="always"
       xlink:href="#linearGradient3765"
       id="radialGradient3771"
       cx="6.9417262"
       cy="46.951221"
       fx="6.9417262"
       fy="46.951221"
       r="4.5"
       gradientUnits="userSpaceOnUse"
       gradientTransform="matrix(1.5555556,-7.1625803e-7,6.6706172e-7,1.5555559,-3.7982729,-26.035242)" />
    <linearGradient
       y2="1010.4637"
       x2="492.76044"
       y1="1003.4911"
       x1="492.76044"
       gradientUnits="userSpaceOnUse"
       id="linearGradient5575"
       xlink:href="#linearGradient4241"
       inkscape:collect="always" />
    <linearGradient
       inkscape:collect="always"
       id="linearGradient4241">
      <stop
         style="stop-color:#ffffff;stop-opacity:1;"
         offset="0"
         id="stop4243" />
      <stop
         style="stop-color:#ffffff;stop-opacity:0;"
         offset="1"
         id="stop4245" />
    </linearGradient>
    <linearGradient
       inkscape:collect="always"
       xlink:href="#linearGradient4241"
       id="linearGradient3819"
       gradientUnits="userSpaceOnUse"
       x1="492.78418"
       y1="1002.0272"
       x2="492.76044"
       y2="1010.4637" />
    <linearGradient
       inkscape:collect="always"
       xlink:href="#linearGradient4241"
       id="linearGradient3828"
       gradientUnits="userSpaceOnUse"
       x1="492.78418"
       y1="1002.0272"
       x2="492.76044"
       y2="1010.4637" />
    <linearGradient
       inkscape:collect="always"
       xlink:href="#linearGradient4241"
       id="linearGradient3836"
       gradientUnits="userSpaceOnUse"
       x1="492.78418"
       y1="1002.0272"
       x2="492.76044"
       y2="1010.4637" />
  </defs>
  <sodipodi:namedview
     id="base"
     pagecolor="#777777"
     bordercolor="#666666"
     borderopacity="1.0"
     inkscape:pageopacity="0.46666667"
     inkscape:pageshadow="2"
     inkscape:zoom="16"
     inkscape:cx="18.07689"
     inkscape:cy="19.879497"
     inkscape:current-layer="layer1"
     showgrid="false"
     inkscape:document-units="px"
     inkscape:grid-bbox="true"
     inkscape:window-width="1366"
     inkscape:window-height="709"
     inkscape:window-x="0"
     inkscape:window-y="27"
     inkscape:window-maximized="1">
    <inkscape:grid
       type="xygrid"
       id="grid2982"
       empspacing="5"
       visible="true"
       enabled="true"
       snapvisiblegridlinesonly="true" />
  </sodipodi:namedview>
  <metadata
     id="metadata2990">
    <rdf:RDF>
      <cc:Work
         rdf:about="">
        <dc:format>image/svg+xml</dc:format>
        <dc:type
           rdf:resource="http://purl.org/dc/dcmitype/StillImage" />
        <dc:title />
      </cc:Work>
    </rdf:RDF>
  </metadata>
  <g
     id="layer1"
     inkscape:label="Layer 1"
     inkscape:groupmode="layer"
     transform="translate(0,-28)">
    <g
       id="g3808"
       transform="translate(37.363106,2.2400388)">
      <path
         transform="matrix(1.375,0,0,2.2,3.1368935,6.7599612)"
         d="m -4,17.5 c 0,1.380712 -1.790861,2.5 -4,2.5 -2.209139,0 -4,-1.119288 -4,-2.5 0,-1.380712 1.790861,-2.5 4,-2.5 2.209139,0 4,1.119288 4,2.5 z"
         sodipodi:ry="2.5"
         sodipodi:rx="4"
         sodipodi:cy="17.5"
         sodipodi:cx="-8"
         id="path3810"
         style="fill:#777777;fill-opacity:1;stroke:none"
         sodipodi:type="arc" />
      <path
         sodipodi:type="arc"
         style="fill:#333333;fill-opacity:1;stroke:none"
         id="path3813"
         sodipodi:cx="-8"
         sodipodi:cy="17.5"
         sodipodi:rx="4"
         sodipodi:ry="2.5"
         d="m -4,17.5 c 0,1.380712 -1.790861,2.5 -4,2.5 -2.209139,0 -4,-1.119288 -4,-2.5 0,-1.380712 1.790861,-2.5 4,-2.5 2.209139,0 4,1.119288 4,2.5 z"
         transform="matrix(1.25,0,0,2,2.1368935,10.259961)" />
    </g>
    <g
       transform="translate(25.863106,2.2400388)"
       id="g3802">
      <path
         sodipodi:type="arc"
         style="fill:#777777;fill-opacity:1;stroke:none"
         id="path3804"
         sodipodi:cx="-8"
         sodipodi:cy="17.5"
         sodipodi:rx="4"
         sodipodi:ry="2.5"
         d="m -4,17.5 c 0,1.380712 -1.790861,2.5 -4,2.5 -2.209139,0 -4,-1.119288 -4,-2.5 0,-1.380712 1.790861,-2.5 4,-2.5 2.209139,0 4,1.119288 4,2.5 z"
         transform="matrix(1.375,0,0,2.2,3.1368935,6.7599612)" />
      <path
         transform="matrix(1.25,0,0,2,2.1368935,10.259961)"
         d="m -4,17.5 c 0,1.380712 -1.790861,2.5 -4,2.5 -2.209139,0 -4,-1.119288 -4,-2.5 0,-1.380712 1.790861,-2.5 4,-2.5 2.209139,0 4,1.119288 4,2.5 z"
         sodipodi:ry="2.5"
         sodipodi:rx="4"
         sodipodi:cy="17.5"
         sodipodi:cx="-8"
         id="path3806"
         style="fill:#333333;fill-opacity:1;stroke:none"
         sodipodi:type="arc" />
    </g>
    <g
       id="g3775"
       transform="translate(14.363107,2.2400388)">
      <path
         transform="matrix(1.375,0,0,2.2,3.1368935,6.7599612)"
         d="m -4,17.5 c 0,1.380712 -1.790861,2.5 -4,2.5 -2.209139,0 -4,-1.119288 -4,-2.5 0,-1.380712 1.790861,-2.5 4,-2.5 2.209139,0 4,1.119288 4,2.5 z"
         sodipodi:ry="2.5"
         sodipodi:rx="4"
         sodipodi:cy="17.5"
         sodipodi:cx="-8"
         id="path2991"
         style="fill:#777777;fill-opacity:1;stroke:none"
         sodipodi:type="arc" />
      <path
         sodipodi:type="arc"
         style="fill:#333333;fill-opacity:1;stroke:none"
         id="path3773"
         sodipodi:cx="-8"
         sodipodi:cy="17.5"
         sodipodi:rx="4"
         sodipodi:ry="2.5"
         d="m -4,17.5 c 0,1.380712 -1.790861,2.5 -4,2.5 -2.209139,0 -4,-1.119288 -4,-2.5 0,-1.380712 1.790861,-2.5 4,-2.5 2.209139,0 4,1.119288 4,2.5 z"
         transform="matrix(1.25,0,0,2,2.1368935,10.259961)" />
    </g>
    <path
       style="fill:#777777;fill-opacity:1;stroke:none"
       d="M 29.5,43 C 27.014719,43 25,45.014719 25,47.5 25,49.985281 27.014719,52 29.5,52 31.985281,52 34,49.985281 34,47.5 34,45.014719 31.985281,43 29.5,43 z m -2.5,6 5,0 0,1 -5,0 z"
       id="path3829"
       inkscape:connector-curvature="0"
       sodipodi:nodetypes="sssssccccc" />
    <path
       style="fill:#777777;fill-opacity:1;stroke:none"
       d="m 18,43 c -2.485281,0 -4.5,2.014719 -4.5,4.5 0,2.485281 2.014719,4.5 4.5,4.5 2.485281,0 4.5,-2.014719 4.5,-4.5 C 22.5,45.014719 20.485281,43 18,43 z m -3,2 c 1.875,0 4.125,0 6,0 l 0,5 -6,0 z m 1,1 0,3 4,0 0,-3 z"
       id="path3827"
       inkscape:connector-curvature="0"
       sodipodi:nodetypes="ssssscccccccccc" />
    <path
       inkscape:connector-curvature="0"
       style="fill:url(#radialGradient3771);fill-opacity:1;stroke:none"
       d="M 6.5,43 C 4.0147186,43 2,45.014719 2,47.5 2,49.985281 4.0147186,52 6.5,52 8.985281,52 11,49.985281 11,47.5 11,45.014719 8.985281,43 6.5,43 z m -2.5,2 1,0 0,1 1,0 0,1 1,0 0,-1 1,0 0,-1 1,0 0,1 -1,0 0,1 -1,0 0,1 1,0 0,1 1,0 0,1 -1,0 0,-1 -1,0 0,-1 -1,0 0,1 -1,0 0,1 -1,0 0,-1 1,0 0,-1 1,0 0,-1 -1,0 0,-1 -1,0 z"
       id="path3825"
       sodipodi:nodetypes="sssssccccccccccccccccccccccccccccccccccccc" />
    <path
       style="opacity:0.8;fill:#333333;fill-opacity:1;stroke:none"
       d="m 19.56728,41.592627 c -1.386297,-0.501637 -2.466543,-0.324091 -4.032763,0.23366 0.08692,-1.246912 0.133189,-1.24193 0.145746,-1.865548 0.0148,-0.734876 0.0219,-1.476025 -0.08311,-2.203509 -0.136485,-0.945473 -0.279603,-1.922747 -0.706325,-2.777414 -0.342355,-0.68569 -0.814282,-1.350227 -1.440575,-1.791966 -0.703738,-0.496363 -1.578994,-0.866694 -2.439991,-0.849147 -0.670905,0.01367 -1.3386762,0.332302 -1.8727512,0.738583 -0.4695881,0.357224 -0.8262892,0.874154 -1.0652866,1.4136 -0.2883795,0.650908 -0.3480758,1.387987 -0.3998072,2.098035 -0.032049,0.439891 0.05668,1.321956 0.05668,1.321956 l 1.7830333,-0.02016 -3.2251352,4.014003 -3.3273078,-3.747563 1.7285186,-0.0776 c -0.004,-0.787391 0.035106,-1.153282 0.1452329,-1.717003 0.1218331,-0.623644 0.3048352,-1.241055 0.566026,-1.820325 0.1787549,-0.396443 0.4083504,-0.77329 0.6771611,-1.11514 0.2663057,-0.338664 0.5827803,-0.638619 0.9153725,-0.91247 0.3003435,-0.247299 0.6273719,-0.463911 0.9673236,-0.653108 0.4544529,-0.252922 0.922581,-0.498929 1.4235032,-0.638835 0.5809049,-0.162245 1.1927718,-0.234869 1.7957668,-0.221778 0.733598,0.01593 1.488085,0.09582 2.170947,0.364375 0.823338,0.323795 1.56707,0.859619 2.215594,1.461404 0.67344,0.624905 1.197734,1.402202 1.685084,2.180994 0.361805,0.57817 0.639684,1.206494 0.909279,1.832994 0.252536,0.58686 0.465682,1.190769 0.661255,1.798988 0.169637,0.527563 0.308783,1.06471 0.443399,1.602277 0.112089,0.44761 0.11028,0.322191 0.30313,1.350697 z"
       id="path3812"
       inkscape:connector-curvature="0"
       sodipodi:nodetypes="ccaaaaaaaacccccaaaaaaaaaaaaac" />
    <path
       style="fill:#333333;fill-opacity:1;stroke:none"
       d="m 8.6863537,41.737031 c 1.3048022,0.332853 2.2733613,1.111885 2.7977493,2.065412 0,0 0.652825,-1.270225 1.070318,-1.846141 0.612405,-0.844791 1.340358,-1.603921 2.085379,-2.334438 0.722281,-0.70822 1.47679,-1.392482 2.30249,-1.976849 1.112953,-0.787663 2.288856,-1.510498 3.545012,-2.040735 1.307469,-0.551896 2.678174,-1.096147 4.095809,-1.162298 0.818182,-0.03818 1.673302,0.102562 2.416074,0.447771 0.689519,0.320459 1.345778,0.811315 1.76379,1.44645 0.176271,0.26783 0.240387,0.604768 0.266038,0.924372 0.02526,0.314692 -0.113434,0.940297 -0.113434,0.940297 l -1.462921,0.02384 2.267263,3.476249 2.565154,-3.190292 -1.520712,-0.219795 c 0.04855,-0.814422 0.05314,-1.064277 -0.121097,-1.553633 -0.23299,-0.654387 -0.688242,-1.229459 -1.187474,-1.712443 -0.405754,-0.392548 -0.902697,-0.699341 -1.422958,-0.918563 -0.806302,-0.33975 -1.686407,-0.52092 -2.559091,-0.583976 -0.983181,-0.07104 -1.978134,0.05903 -2.947752,0.236604 -1.182966,0.216646 -2.34378,0.570226 -3.465243,1.00458 -1.07774,0.417421 -2.100151,0.970409 -3.111642,1.529558 -1.017475,0.562458 -2.031993,1.142304 -2.967734,1.832233 -0.936545,0.690523 -1.735022,1.551721 -2.629999,2.29533 -0.5441934,0.452154 -1.6650103,1.316442 -1.6650193,1.316441 z"
       id="path2986"
       inkscape:connector-curvature="0"
       sodipodi:nodetypes="ccaaaaaaaacccccaaaaaaaaacc" />
    <path
       sodipodi:nodetypes="ccaaaaaaacccccaaaaaaaaaaac"
       inkscape:connector-curvature="0"
       id="path3756"
       d="m 31.236809,53.730322 c -1.257732,0.30879 -2.697046,0.283205 -3.812343,-0.352142 0,0 0.262662,1.140384 0.308377,1.721583 0.04566,0.580461 0.05137,1.170647 -0.03538,1.746404 -0.104801,0.69562 -0.225658,1.421679 -0.580817,2.028913 -0.337812,0.577575 -0.831908,1.092698 -1.411207,1.427546 -0.555047,0.320831 -1.219337,0.509543 -1.860107,0.488966 -0.680363,-0.02185 -1.371706,-0.266593 -1.937666,-0.644828 -0.648888,-0.433657 -1.165596,-1.081196 -1.532883,-1.769829 -0.281015,-0.526881 -0.471214,-1.72833 -0.471214,-1.72833 l 1.967862,-0.421459 -3.835114,-2.416173 -2.652342,3.747563 1.993916,-0.405086 c 0,0 0.118493,0.497275 0.215403,0.732663 0.155023,0.376544 0.349006,0.739877 0.580482,1.074894 0.375137,0.542941 0.785379,1.078813 1.296606,1.496138 0.567114,0.462947 1.226647,0.825154 1.914062,1.076946 0.770465,0.282211 1.597096,0.445442 2.417406,0.464208 0.726155,0.01661 1.465599,-0.08848 2.15649,-0.312638 0.553606,-0.179615 1.065322,-0.483394 1.545909,-0.811688 0.458544,-0.313236 0.884502,-0.681268 1.257832,-1.092369 0.428679,-0.472049 0.806449,-0.997248 1.109751,-1.558143 0.308792,-0.571047 0.510082,-1.195976 0.708876,-1.813979 0.153792,-0.478099 0.253637,-0.971945 0.372614,-1.459874 0.09885,-0.405391 0.18583,-0.789618 0.283487,-1.219286 z"
       style="opacity:0.8;fill:#333333;fill-opacity:1;stroke:none" />
    <g
       id="g3815"
       transform="translate(11.499995,3e-6)">
      <path
         inkscape:connector-curvature="0"
         id="path5113"
         d="m 2.028085,47.056335 c -0.01368,0.142467 -0.02808,0.303361 -0.02808,0.449424 0,2.482077 2.014722,4.494238 4.5,4.494238 2.485278,0 4.5,-2.012161 4.5,-4.494238 0,-0.146063 -0.01449,-0.306957 -0.02808,-0.449424 -0.230445,2.266264 -2.141928,4.044814 -4.471875,4.044814 -2.329947,0 -4.24143,-1.77855 -4.471875,-4.044814 z"
         style="opacity:0.2;color:#000000;fill:#ffffff;fill-opacity:1;fill-rule:nonzero;stroke:none;stroke-width:2;marker:none;visibility:visible;display:inline;overflow:visible;enable-background:accumulate" />
      <path
         transform="matrix(0.63766857,0,0,0.74903964,-307.23297,-708.55805)"
         d="m 497,1006.3622 c 0,1.6568 -2.23858,3 -5,3 -2.76142,0 -5,-1.3432 -5,-3 0,-1.6569 2.23858,-3 5,-3 2.76142,0 5,1.3431 5,3 z"
         sodipodi:ry="3"
         sodipodi:rx="5"
         sodipodi:cy="1006.3622"
         sodipodi:cx="492"
         id="path5118"
         style="opacity:0.5;color:#000000;fill:url(#linearGradient3819);fill-opacity:1;fill-rule:nonzero;stroke:none;stroke-width:2;marker:none;visibility:visible;display:inline;overflow:visible;enable-background:accumulate"
         sodipodi:type="arc" />
    </g>
    <g
       transform="translate(22.999995,3e-6)"
       id="g3821">
      <path
         style="opacity:0.2;color:#000000;fill:#ffffff;fill-opacity:1;fill-rule:nonzero;stroke:none;stroke-width:2;marker:none;visibility:visible;display:inline;overflow:visible;enable-background:accumulate"
         d="m 2.028085,47.056335 c -0.01368,0.142467 -0.02808,0.303361 -0.02808,0.449424 0,2.482077 2.014722,4.494238 4.5,4.494238 2.485278,0 4.5,-2.012161 4.5,-4.494238 0,-0.146063 -0.01449,-0.306957 -0.02808,-0.449424 -0.230445,2.266264 -2.141928,4.044814 -4.471875,4.044814 -2.329947,0 -4.24143,-1.77855 -4.471875,-4.044814 z"
         id="path3823"
         inkscape:connector-curvature="0" />
      <path
         sodipodi:type="arc"
         style="opacity:0.5;color:#000000;fill:url(#linearGradient3828);fill-opacity:1;fill-rule:nonzero;stroke:none;stroke-width:2;marker:none;visibility:visible;display:inline;overflow:visible;enable-background:accumulate"
         id="path3826"
         sodipodi:cx="492"
         sodipodi:cy="1006.3622"
         sodipodi:rx="5"
         sodipodi:ry="3"
         d="m 497,1006.3622 c 0,1.6568 -2.23858,3 -5,3 -2.76142,0 -5,-1.3432 -5,-3 0,-1.6569 2.23858,-3 5,-3 2.76142,0 5,1.3431 5,3 z"
         transform="matrix(0.63766857,0,0,0.74903964,-307.23297,-708.55805)" />
    </g>
    <g
       id="g3830"
       transform="translate(-5e-6,3e-6)">
      <path
         inkscape:connector-curvature="0"
         id="path3832"
         d="m 2.028085,47.056335 c -0.01368,0.142467 -0.02808,0.303361 -0.02808,0.449424 0,2.482077 2.014722,4.494238 4.5,4.494238 2.485278,0 4.5,-2.012161 4.5,-4.494238 0,-0.146063 -0.01449,-0.306957 -0.02808,-0.449424 -0.230445,2.266264 -2.141928,4.044814 -4.471875,4.044814 -2.329947,0 -4.24143,-1.77855 -4.471875,-4.044814 z"
         style="opacity:0.2;color:#000000;fill:#ffffff;fill-opacity:1;fill-rule:nonzero;stroke:none;stroke-width:2;marker:none;visibility:visible;display:inline;overflow:visible;enable-background:accumulate" />
      <path
         transform="matrix(0.63766857,0,0,0.74903964,-307.23297,-708.55805)"
         d="m 497,1006.3622 c 0,1.6568 -2.23858,3 -5,3 -2.76142,0 -5,-1.3432 -5,-3 0,-1.6569 2.23858,-3 5,-3 2.76142,0 5,1.3431 5,3 z"
         sodipodi:ry="3"
         sodipodi:rx="5"
         sodipodi:cy="1006.3622"
         sodipodi:cx="492"
         id="path3834"
         style="opacity:0.5;color:#000000;fill:url(#linearGradient3836);fill-opacity:1;fill-rule:nonzero;stroke:none;stroke-width:2;marker:none;visibility:visible;display:inline;overflow:visible;enable-background:accumulate"
         sodipodi:type="arc" />
    </g>
  </g>
</svg>
