<?xml version="1.0" encoding="UTF-8" standalone="no"?>
<!-- Created with Inkscape (http://www.inkscape.org/) -->

<svg
   xmlns:dc="http://purl.org/dc/elements/1.1/"
   xmlns:cc="http://creativecommons.org/ns#"
   xmlns:rdf="http://www.w3.org/1999/02/22-rdf-syntax-ns#"
   xmlns:svg="http://www.w3.org/2000/svg"
   xmlns="http://www.w3.org/2000/svg"
   xmlns:sodipodi="http://sodipodi.sourceforge.net/DTD/sodipodi-0.dtd"
   xmlns:inkscape="http://www.inkscape.org/namespaces/inkscape"
   width="36"
   height="36"
   id="svg2985"
   version="1.1"
   inkscape:version="0.48.4 r9939"
   sodipodi:docname="appearance-settings-window-controls-dark_36.svg">
  <defs
     id="defs2987" />
  <sodipodi:namedview
     id="base"
     pagecolor="#777777"
     bordercolor="#666666"
     borderopacity="1.0"
     inkscape:pageopacity="0.46666667"
     inkscape:pageshadow="2"
     inkscape:zoom="22"
     inkscape:cx="11.738278"
     inkscape:cy="15.397017"
     inkscape:current-layer="layer1"
     showgrid="true"
     inkscape:document-units="px"
     inkscape:grid-bbox="true"
     inkscape:window-width="1301"
     inkscape:window-height="744"
     inkscape:window-x="65"
     inkscape:window-y="24"
     inkscape:window-maximized="1">
    <inkscape:grid
       type="xygrid"
       id="grid2982"
       empspacing="5"
       visible="true"
       enabled="true"
       snapvisiblegridlinesonly="true" />
  </sodipodi:namedview>
  <metadata
     id="metadata2990">
    <rdf:RDF>
      <cc:Work
         rdf:about="">
        <dc:format>image/svg+xml</dc:format>
        <dc:type
           rdf:resource="http://purl.org/dc/dcmitype/StillImage" />
        <dc:title />
      </cc:Work>
    </rdf:RDF>
  </metadata>
  <g
     id="layer1"
     inkscape:label="Layer 1"
     inkscape:groupmode="layer"
     transform="translate(0,-28)">
    <path
       style="fill:#333333;fill-opacity:1;stroke:none"
       d="M 29.5,41 C 27.014719,41 25,43.014719 25,45.5 25,47.985281 27.014719,50 29.5,50 31.985281,50 34,47.985281 34,45.5 34,43.014719 31.985281,41 29.5,41 z m -2.5,6 5,0 0,1 -5,0 z"
       id="path3829"
       inkscape:connector-curvature="0"
       sodipodi:nodetypes="sssssccccc" />
    <path
       style="fill:#333333;fill-opacity:1;stroke:none"
       d="m 18,41 c -2.485281,0 -4.5,2.014719 -4.5,4.5 0,2.485281 2.014719,4.5 4.5,4.5 2.485281,0 4.5,-2.014719 4.5,-4.5 C 22.5,43.014719 20.485281,41 18,41 z m -3,2 c 1.875,0 4.125,0 6,0 l 0,5 -6,0 z m 1,1 0,3 4,0 0,-3 z"
       id="path3827"
       inkscape:connector-curvature="0"
       sodipodi:nodetypes="ssssscccccccccc" />
    <path
       style="fill:#333333;fill-opacity:1;stroke:none"
       d="M 6.5 13 C 4.0147186 13 2 15.014719 2 17.5 C 2 19.985281 4.0147186 22 6.5 22 C 8.985281 22 11 19.985281 11 17.5 C 11 15.014719 8.985281 13 6.5 13 z M 4 15 L 5 15 L 5 16 L 6 16 L 6 17 L 7 17 L 7 16 L 8 16 L 8 15 L 9 15 L 9 16 L 8 16 L 8 17 L 7 17 L 7 18 L 8 18 L 8 19 L 9 19 L 9 20 L 8 20 L 8 19 L 7 19 L 7 18 L 6 18 L 6 19 L 5 19 L 5 20 L 4 20 L 4 19 L 5 19 L 5 18 L 6 18 L 6 17 L 5 17 L 5 16 L 4 16 L 4 15 z "
       transform="translate(0,28)"
       id="path3825" />
    <path
       style="opacity:0.7;fill:#333333;fill-opacity:1;stroke:none"
       d="m 19.611474,40.382048 c -1.386297,-0.501637 -2.466543,-0.324091 -4.032763,0.23366 0.08692,-1.246912 0.168163,-1.669643 0.192461,-2.507624 0.01953,-0.673731 0.05664,-1.354306 -0.03766,-2.021691 -0.151666,-1.07338 -0.352114,-2.174364 -0.842689,-3.14105 -0.346831,-0.683437 -0.814282,-1.350227 -1.440575,-1.791966 -0.703738,-0.496363 -1.578994,-0.866694 -2.439991,-0.849147 -0.670905,0.01367 -1.3386762,0.332302 -1.8727512,0.738583 -0.4695881,0.357224 -0.8072299,0.883007 -1.0652866,1.4136 -0.2787619,0.573165 -0.4378982,1.212869 -0.4907163,1.848035 -0.043614,0.52448 0.1475885,1.571956 0.1475885,1.571956 l 1.7830333,-0.02016 -3.2251352,4.014003 -3.3273078,-3.747563 1.7285186,-0.0776 c -0.004,-0.787391 0.1383666,-1.189842 0.3043238,-1.762458 0.1645969,-0.567921 0.3899869,-1.12303 0.6796624,-1.638506 0.4283828,-0.762305 0.9223128,-1.50673 1.547079,-2.11852 0.4238694,-0.415066 0.9309009,-0.748942 1.4590086,-1.019215 0.6287754,-0.321792 1.2957751,-0.648883 2.0003129,-0.699232 0.904957,-0.06467 1.83124,0.180104 2.670947,0.523647 0.818841,0.335006 1.56707,0.859619 2.215594,1.461404 0.67344,0.624905 1.214808,1.391775 1.685084,2.180994 0.469304,0.787589 0.782666,1.659899 1.113824,2.514812 0.316341,0.816659 0.618019,1.642911 0.831927,2.492174 0.198453,0.787905 0.222656,1.373358 0.415511,2.401864 z"
       id="path3812"
       inkscape:connector-curvature="0"
       sodipodi:nodetypes="ccaaaaaaaacccccaaaaaaaaaac" />
    <path
       style="fill:#333333;fill-opacity:1;stroke:none"
       d="m 8.2835646,40.505615 c 1.3048022,0.332853 1.7279064,0.884612 2.2977494,1.474503 2.014249,-2.209414 2.350079,-2.473967 3.649395,-3.574545 1.068573,-0.905128 2.220705,-1.711413 3.393399,-2.476849 0.982852,-0.641523 1.972252,-1.291839 3.045012,-1.768007 1.208314,-0.536336 2.462609,-1.072076 3.777627,-1.207753 0.850902,-0.08779 1.757285,-0.04944 2.552438,0.265952 0.669519,0.265561 1.314646,0.713586 1.718335,1.310087 0.361262,0.53381 0.445938,1.232946 0.516749,1.863368 l -1.759518,0.173543 2.267263,3.476249 2.790143,-3.12601 -1.654792,-0.465895 c 0.04855,-0.814422 -0.02173,-1.199489 -0.234103,-1.747465 -0.25102,-0.647684 -0.655711,-1.265526 -1.187474,-1.712443 -0.940705,-0.790609 -2.130143,-1.367875 -3.345685,-1.547994 -1.129125,-0.167313 -2.291553,0.169065 -3.391269,0.474906 -1.757755,0.488847 -3.409056,1.319058 -5.034106,2.148444 -1.316924,0.672126 -2.56235,1.478581 -3.803406,2.28221 -1.0286,0.666056 -2.033195,1.370126 -3.015694,2.102482 -0.8819821,0.657431 -2.5820584,2.055217 -2.5820634,2.055217 z"
       id="path2986"
       inkscape:connector-curvature="0"
       sodipodi:nodetypes="ccaaaaaacccccaaaaaaac" />
    <path
       sodipodi:nodetypes="ccaaaaaaaacccccaaaaaaaaaac"
       inkscape:connector-curvature="0"
       id="path3756"
       d="m 30.918627,50.787357 c -1.257732,0.30879 -2.924319,0.146841 -3.494161,-0.443051 -0.04716,1.279053 -0.06673,1.678786 -0.128951,2.516369 -0.0669,0.900657 -0.115099,1.805652 -0.262648,2.696657 -0.174044,1.051003 -0.34195,2.119665 -0.732109,3.110964 -0.378421,0.961478 -0.781944,1.986557 -1.536999,2.69192 -0.564617,0.527457 -1.314869,0.968796 -2.086437,1.009853 -0.696367,0.03705 -1.408324,-0.292019 -1.969176,-0.706442 -0.634795,-0.46906 -1.127639,-1.162106 -1.41884,-1.895718 -0.324213,-0.816775 -0.280437,-1.740829 -0.297869,-2.619425 -0.01385,-0.69784 0.153876,-2.08827 0.153876,-2.08827 l 2.084002,0.0523 -3.192994,-4.335415 -3.64872,4.068975 1.860983,0.04546 c -0.004,0.787391 0.0074,1.612038 0.121733,2.407337 0.125345,0.872117 0.25856,1.76501 0.61538,2.570602 0.294256,0.66434 0.741681,1.261307 1.228897,1.800338 0.474903,0.525408 1.00102,1.033978 1.625264,1.368501 0.700472,0.375373 1.494532,0.636225 2.288604,0.668128 0.862008,0.03463 1.753298,-0.15779 2.534583,-0.523647 0.817562,-0.382845 1.497333,-1.03195 2.119171,-1.686393 0.641696,-0.675342 1.179801,-1.45524 1.626316,-2.27285 0.484404,-0.886989 0.801668,-1.858227 1.12078,-2.817166 0.286075,-0.859662 0.490326,-1.744712 0.708876,-2.62397 0.246962,-0.99356 0.45316,-1.99507 0.680439,-2.995057 z"
       style="opacity:0.5;fill:#333333;fill-opacity:1;stroke:none" />
  </g>
</svg>
