<?xml version="1.0" encoding="UTF-8" standalone="no"?>
<!-- Created with Inkscape (http://www.inkscape.org/) -->

<svg
   xmlns:dc="http://purl.org/dc/elements/1.1/"
   xmlns:cc="http://creativecommons.org/ns#"
   xmlns:rdf="http://www.w3.org/1999/02/22-rdf-syntax-ns#"
   xmlns:svg="http://www.w3.org/2000/svg"
   xmlns="http://www.w3.org/2000/svg"
   xmlns:sodipodi="http://sodipodi.sourceforge.net/DTD/sodipodi-0.dtd"
   xmlns:inkscape="http://www.inkscape.org/namespaces/inkscape"
   width="36"
   height="36"
   id="svg2985"
   version="1.1"
   inkscape:version="0.48.4 r9939"
   sodipodi:docname="unity-settings-launcher-dark_36.svg">
  <defs
     id="defs2987" />
  <sodipodi:namedview
     id="base"
     pagecolor="#777777"
     bordercolor="#666666"
     borderopacity="1.0"
     inkscape:pageopacity="0.46666667"
     inkscape:pageshadow="2"
     inkscape:zoom="45.254834"
     inkscape:cx="2.3141222"
     inkscape:cy="25.297363"
     inkscape:current-layer="layer1"
     showgrid="true"
     inkscape:document-units="px"
     inkscape:grid-bbox="true"
     inkscape:window-width="1301"
     inkscape:window-height="744"
     inkscape:window-x="65"
     inkscape:window-y="24"
     inkscape:window-maximized="1">
    <inkscape:grid
       type="xygrid"
       id="grid2982"
       empspacing="5"
       visible="true"
       enabled="true"
       snapvisiblegridlinesonly="true" />
  </sodipodi:namedview>
  <metadata
     id="metadata2990">
    <rdf:RDF>
      <cc:Work
         rdf:about="">
        <dc:format>image/svg+xml</dc:format>
        <dc:type
           rdf:resource="http://purl.org/dc/dcmitype/StillImage" />
        <dc:title />
      </cc:Work>
    </rdf:RDF>
  </metadata>
  <g
     id="layer1"
     inkscape:label="Layer 1"
     inkscape:groupmode="layer"
     transform="translate(0,-28)">
    <rect
       ry="0"
       rx="0"
       y="34"
       x="4"
       height="24"
       width="4"
       id="rect2985"
       style="opacity:0.1;fill:#333333;fill-opacity:1;stroke:none" />
    <rect
       style="fill:none;stroke:#333333;stroke-width:2;stroke-miterlimit:4;stroke-opacity:1;stroke-dasharray:none"
       id="rect2984"
       width="30"
       height="24"
       x="3"
       y="34"
       rx="3"
       ry="3" />
    <rect
       style="fill:#333333;fill-opacity:1;stroke:none"
       id="rect3773"
       width="1"
       height="24"
       x="8"
       y="34"
       rx="0"
       ry="0" />
    <path
       style="font-size:medium;font-style:normal;font-variant:normal;font-weight:normal;font-stretch:normal;text-indent:0;text-align:start;text-decoration:none;line-height:normal;letter-spacing:normal;word-spacing:normal;text-transform:none;direction:ltr;block-progression:tb;writing-mode:lr-tb;text-anchor:start;baseline-shift:baseline;color:#000000;fill:#333333;fill-opacity:1;fill-rule:nonzero;stroke:none;stroke-width:0.40000004;marker:none;visibility:visible;display:inline;overflow:visible;enable-background:accumulate;font-family:Sans;-inkscape-font-specification:Sans"
       d="m 6,36 c -1,0 -1,1 -1,1 -1.728e-4,0.549086 0,0.261142 0,0.8125 -8.146e-4,0.0104 -8.146e-4,0.02085 0,0.03125 0.00665,0.02245 0.017283,0.04371 0.03125,0.0625 0.00922,0.01153 0.019723,0.02203 0.03125,0.03125 0.00922,0.01153 0.019723,0.02203 0.03125,0.03125 0.01879,0.01397 0.040052,0.0246 0.0625,0.03125 0.010395,8.15e-4 0.020855,8.15e-4 0.03125,0 l 1.625,0 c 0.010395,8.15e-4 0.020855,8.15e-4 0.03125,0 0.022448,-0.0067 0.04371,-0.01728 0.0625,-0.03125 C 6.917777,37.95955 6.928279,37.94903 6.9375,37.9375 6.949027,37.9283 6.959529,37.91778 6.96875,37.90625 6.982717,37.88746 6.993348,37.8662 7,37.84375 7.0008146,37.83335 7.0008146,37.8229 7,37.8125 l 0,-1.625 C 7.0008146,36.1771 7.0008146,36.16665 7,36.15625 6.99335,36.1338 6.982717,36.11254 6.96875,36.09375 6.95953,36.08222 6.949027,36.07172 6.9375,36.0625 6.92828,36.05097 6.917777,36.04047 6.90625,36.03125 6.88746,36.01728 6.866198,36.00665 6.84375,36 6.833355,35.999185 6.822895,35.999185 6.8125,36 6.2616653,35.999998 6.5483606,36 6,36 z"
       id="path2995"
       inkscape:connector-curvature="0"
       sodipodi:nodetypes="cccccccccccccccccccccccc" />
    <path
       sodipodi:nodetypes="cccccccccccccccccccccccc"
       inkscape:connector-curvature="0"
       id="path3769"
       d="m 6.000611,55.999389 c -1,0 -1,-1 -1,-1 -1.728e-4,-0.549086 0,-0.261142 0,-0.8125 -8.146e-4,-0.0104 -8.146e-4,-0.02085 0,-0.03125 0.00665,-0.02245 0.017283,-0.04371 0.03125,-0.0625 0.00922,-0.01153 0.019723,-0.02203 0.03125,-0.03125 0.00922,-0.01153 0.019723,-0.02203 0.03125,-0.03125 0.01879,-0.01397 0.040052,-0.0246 0.0625,-0.03125 0.010395,-8.15e-4 0.020855,-8.15e-4 0.03125,0 l 1.625,0 c 0.010395,-8.15e-4 0.020855,-8.15e-4 0.03125,0 0.022448,0.0067 0.04371,0.01728 0.0625,0.03125 0.011527,0.0092 0.022029,0.01972 0.03125,0.03125 0.011527,0.0092 0.022029,0.01972 0.03125,0.03125 0.013967,0.01879 0.024598,0.04005 0.03125,0.0625 8.146e-4,0.0104 8.146e-4,0.02085 0,0.03125 l 0,1.625 c 8.146e-4,0.0104 8.146e-4,0.02085 0,0.03125 -0.00665,0.02245 -0.017283,0.04371 -0.03125,0.0625 -0.00922,0.01153 -0.019723,0.02203 -0.03125,0.03125 -0.00922,0.01153 -0.019723,0.02203 -0.03125,0.03125 -0.01879,0.01397 -0.040052,0.0246 -0.0625,0.03125 -0.010395,8.15e-4 -0.020855,8.15e-4 -0.03125,0 -0.5508348,2e-6 -0.2641395,0 -0.8125,0 z"
       style="font-size:medium;font-style:normal;font-variant:normal;font-weight:normal;font-stretch:normal;text-indent:0;text-align:start;text-decoration:none;line-height:normal;letter-spacing:normal;word-spacing:normal;text-transform:none;direction:ltr;block-progression:tb;writing-mode:lr-tb;text-anchor:start;baseline-shift:baseline;color:#000000;fill:#333333;fill-opacity:1;fill-rule:nonzero;stroke:none;stroke-width:0.40000004;marker:none;visibility:visible;display:inline;overflow:visible;enable-background:accumulate;font-family:Sans;-inkscape-font-specification:Sans" />
    <path
       style="font-size:medium;font-style:normal;font-variant:normal;font-weight:normal;font-stretch:normal;text-indent:0;text-align:start;text-decoration:none;line-height:normal;letter-spacing:normal;word-spacing:normal;text-transform:none;direction:ltr;block-progression:tb;writing-mode:lr-tb;text-anchor:start;baseline-shift:baseline;color:#000000;fill:#333333;fill-opacity:1;fill-rule:nonzero;stroke:none;stroke-width:0.40000004000000000;marker:none;visibility:visible;display:inline;overflow:visible;enable-background:accumulate;font-family:Sans;-inkscape-font-specification:Sans;opacity:0.7"
       d="m 5.1625792,39.000611 c -0.022366,0.0067 -0.043545,0.01727 -0.062265,0.03123 -0.011487,0.0092 -0.021947,0.01971 -0.031132,0.03123 -0.011487,0.0092 -0.021947,0.01971 -0.031132,0.03123 -0.013918,0.01878 -0.024508,0.04002 -0.031132,0.06246 -8.12e-4,0.01039 -8.12e-4,0.02085 0,0.03123 l 0,0.655849 c -0.015566,0.09369 0,0.156154 0,0.156154 -1.722e-4,0.548751 0,0.260983 0,0.812004 -8.116e-4,0.01039 -8.116e-4,0.02084 0,0.03123 0.00662,0.02244 0.017218,0.04368 0.031132,0.06246 0.00919,0.01152 0.019649,0.02202 0.031132,0.03123 0.00919,0.01152 0.019649,0.02202 0.031132,0.03123 0.018719,0.01396 0.039901,0.02458 0.062265,0.03123 0.010356,8.15e-4 0.020777,8.15e-4 0.031132,0 l 1.6188841,0 c 0.010356,8.15e-4 0.020776,8.15e-4 0.031132,0 0.022366,-0.0067 0.043545,-0.01727 0.062265,-0.03123 0.011487,-0.0092 0.021947,-0.01971 0.031132,-0.03123 0.011487,-0.0092 0.021947,-0.01971 0.031132,-0.03123 0.013917,-0.01878 0.024507,-0.04003 0.031132,-0.06246 8.119e-4,-0.01038 8.119e-4,-0.02084 0,-0.03123 l 0,-0.812004 0,-0.812003 c 8.115e-4,-0.01039 8.115e-4,-0.02084 0,-0.03123 -0.00663,-0.02244 -0.017218,-0.04368 -0.031132,-0.06246 -0.00919,-0.01152 -0.019649,-0.02202 -0.031132,-0.03123 -0.00919,-0.01152 -0.019649,-0.02202 -0.031132,-0.03123 -0.018719,-0.01396 -0.039901,-0.02458 -0.062265,-0.03123 -0.010356,-8.14e-4 -0.020777,-8.14e-4 -0.031132,0 l -0.8094421,0 c -0.5470194,-1.73e-4 -0.2601591,0 -0.809442,0 -0.010361,-8.14e-4 -0.020771,-8.14e-4 -0.031132,0 z"
       id="path3771"
       inkscape:connector-curvature="0" />
    <path
       inkscape:connector-curvature="0"
       id="path3776"
       d="m 5.1625792,42.000611 c -0.022366,0.0067 -0.043545,0.01727 -0.062265,0.03123 -0.011487,0.0092 -0.021947,0.01971 -0.031132,0.03123 -0.011487,0.0092 -0.021947,0.01971 -0.031132,0.03123 -0.013918,0.01878 -0.024508,0.04002 -0.031132,0.06246 -8.12e-4,0.01039 -8.12e-4,0.02085 0,0.03123 l 0,0.655849 c -0.015566,0.09369 0,0.156154 0,0.156154 -1.722e-4,0.548751 0,0.260983 0,0.812004 -8.116e-4,0.01039 -8.116e-4,0.02084 0,0.03123 0.00662,0.02244 0.017218,0.04368 0.031132,0.06246 0.00919,0.01152 0.019649,0.02202 0.031132,0.03123 0.00919,0.01152 0.019649,0.02202 0.031132,0.03123 0.018719,0.01396 0.039901,0.02458 0.062265,0.03123 0.010356,8.15e-4 0.020777,8.15e-4 0.031132,0 l 1.6188841,0 c 0.010356,8.15e-4 0.020776,8.15e-4 0.031132,0 0.022366,-0.0067 0.043545,-0.01727 0.062265,-0.03123 0.011487,-0.0092 0.021947,-0.01971 0.031132,-0.03123 0.011487,-0.0092 0.021947,-0.01971 0.031132,-0.03123 0.013917,-0.01878 0.024507,-0.04003 0.031132,-0.06246 8.119e-4,-0.01038 8.119e-4,-0.02084 0,-0.03123 l 0,-0.812004 0,-0.812003 c 8.115e-4,-0.01039 8.115e-4,-0.02084 0,-0.03123 -0.00663,-0.02244 -0.017218,-0.04368 -0.031132,-0.06246 -0.00919,-0.01152 -0.019649,-0.02202 -0.031132,-0.03123 -0.00919,-0.01152 -0.019649,-0.02202 -0.031132,-0.03123 -0.018719,-0.01396 -0.039901,-0.02458 -0.062265,-0.03123 -0.010356,-8.14e-4 -0.020777,-8.14e-4 -0.031132,0 l -0.8094421,0 c -0.5470194,-1.73e-4 -0.2601591,0 -0.809442,0 -0.010361,-8.14e-4 -0.020771,-8.14e-4 -0.031132,0 z"
       style="font-size:medium;font-style:normal;font-variant:normal;font-weight:normal;font-stretch:normal;text-indent:0;text-align:start;text-decoration:none;line-height:normal;letter-spacing:normal;word-spacing:normal;text-transform:none;direction:ltr;block-progression:tb;writing-mode:lr-tb;text-anchor:start;baseline-shift:baseline;color:#000000;fill:#333333;fill-opacity:1;fill-rule:nonzero;stroke:none;stroke-width:0.40000004000000000;marker:none;visibility:visible;display:inline;overflow:visible;enable-background:accumulate;font-family:Sans;-inkscape-font-specification:Sans;opacity:0.3" />
    <path
       style="font-size:medium;font-style:normal;font-variant:normal;font-weight:normal;font-stretch:normal;text-indent:0;text-align:start;text-decoration:none;line-height:normal;letter-spacing:normal;word-spacing:normal;text-transform:none;direction:ltr;block-progression:tb;writing-mode:lr-tb;text-anchor:start;baseline-shift:baseline;color:#000000;fill:#333333;fill-opacity:1;fill-rule:nonzero;stroke:none;stroke-width:0.40000004000000000;marker:none;visibility:visible;display:inline;overflow:visible;enable-background:accumulate;font-family:Sans;-inkscape-font-specification:Sans;opacity:0.6"
       d="m 5.1625792,45.000622 c -0.022366,0.0067 -0.043545,0.01727 -0.062265,0.03123 -0.011487,0.0092 -0.021947,0.01971 -0.031132,0.03123 -0.011487,0.0092 -0.021947,0.01971 -0.031132,0.03123 -0.013918,0.01878 -0.024508,0.04002 -0.031132,0.06246 -8.12e-4,0.01039 -8.12e-4,0.02085 0,0.03123 l 0,0.655849 c -0.015566,0.09369 0,0.156154 0,0.156154 -1.722e-4,0.548751 0,0.260983 0,0.812004 -8.116e-4,0.01039 -8.116e-4,0.02084 0,0.03123 0.00662,0.02244 0.017218,0.04368 0.031132,0.06246 0.00919,0.01152 0.019649,0.02202 0.031132,0.03123 0.00919,0.01152 0.019649,0.02202 0.031132,0.03123 0.018719,0.01396 0.039901,0.02458 0.062265,0.03123 0.010356,8.15e-4 0.020777,8.15e-4 0.031132,0 l 1.6188841,0 c 0.010356,8.15e-4 0.020776,8.15e-4 0.031132,0 0.022366,-0.0067 0.043545,-0.01727 0.062265,-0.03123 0.011487,-0.0092 0.021947,-0.01971 0.031132,-0.03123 0.011487,-0.0092 0.021947,-0.01971 0.031132,-0.03123 0.013917,-0.01878 0.024507,-0.04003 0.031132,-0.06246 8.119e-4,-0.01038 8.119e-4,-0.02084 0,-0.03123 l 0,-0.812004 0,-0.812003 c 8.115e-4,-0.01039 8.115e-4,-0.02084 0,-0.03123 -0.00663,-0.02244 -0.017218,-0.04368 -0.031132,-0.06246 -0.00919,-0.01152 -0.019649,-0.02202 -0.031132,-0.03123 -0.00919,-0.01152 -0.019649,-0.02202 -0.031132,-0.03123 -0.018719,-0.01396 -0.039901,-0.02458 -0.062265,-0.03123 -0.010356,-8.14e-4 -0.020777,-8.14e-4 -0.031132,0 l -0.8094421,0 c -0.5470194,-1.73e-4 -0.2601591,0 -0.809442,0 -0.010361,-8.14e-4 -0.020771,-8.14e-4 -0.031132,0 z"
       id="path3778"
       inkscape:connector-curvature="0" />
  </g>
</svg>
