<?xml version="1.0" encoding="UTF-8" standalone="no"?>
<!-- Created with Inkscape (http://www.inkscape.org/) -->

<svg
   xmlns:dc="http://purl.org/dc/elements/1.1/"
   xmlns:cc="http://creativecommons.org/ns#"
   xmlns:rdf="http://www.w3.org/1999/02/22-rdf-syntax-ns#"
   xmlns:svg="http://www.w3.org/2000/svg"
   xmlns="http://www.w3.org/2000/svg"
   xmlns:sodipodi="http://sodipodi.sourceforge.net/DTD/sodipodi-0.dtd"
   xmlns:inkscape="http://www.inkscape.org/namespaces/inkscape"
   width="36"
   height="36"
   id="svg2985"
   version="1.1"
   inkscape:version="0.48.4 r9939"
   sodipodi:docname="wm-settings-general-dark_36.svg">
  <defs
     id="defs2987" />
  <sodipodi:namedview
     id="base"
     pagecolor="#777777"
     bordercolor="#666666"
     borderopacity="1.0"
     inkscape:pageopacity="0.46666667"
     inkscape:pageshadow="2"
     inkscape:zoom="15.556349"
     inkscape:cx="2.1830256"
     inkscape:cy="17.743863"
     inkscape:current-layer="layer1"
     showgrid="true"
     inkscape:document-units="px"
     inkscape:grid-bbox="true"
     inkscape:window-width="1301"
     inkscape:window-height="744"
     inkscape:window-x="65"
     inkscape:window-y="24"
     inkscape:window-maximized="1"
     showguides="true"
     inkscape:guide-bbox="true">
    <inkscape:grid
       type="xygrid"
       id="grid2982"
       empspacing="5"
       visible="true"
       enabled="true"
       snapvisiblegridlinesonly="true" />
    <sodipodi:guide
       orientation="0,1"
       position="9,35"
       id="guide3761" />
  </sodipodi:namedview>
  <metadata
     id="metadata2990">
    <rdf:RDF>
      <cc:Work
         rdf:about="">
        <dc:format>image/svg+xml</dc:format>
        <dc:type
           rdf:resource="http://purl.org/dc/dcmitype/StillImage" />
        <dc:title></dc:title>
      </cc:Work>
    </rdf:RDF>
  </metadata>
  <g
     id="layer1"
     inkscape:label="Layer 1"
     inkscape:groupmode="layer"
     transform="translate(0,-28)">
    <rect
       style="opacity:0.2;fill:#333333;fill-opacity:1;stroke:none"
       id="rect3826"
       width="30"
       height="5"
       x="3"
       y="34"
       rx="0"
       ry="2.5" />
    <rect
       style="fill:none;stroke:#333;stroke-width:2;stroke-miterlimit:4;stroke-opacity:1;stroke-dasharray:none"
       id="rect2984"
       width="30.057146"
       height="24.228567"
       x="2.9901266"
       y="33.867023"
       rx="3.0057147"
       ry="3.0285709" />
    <rect
       style="fill:#333333;fill-opacity:1;stroke:none"
       id="rect3773"
       width="32"
       height="1"
       x="2"
       y="38"
       rx="0"
       ry="0" />
    <path
       sodipodi:type="arc"
       style="fill:#333;fill-opacity:1;fill-rule:nonzero;stroke:none"
       id="path3816"
       sodipodi:cx="6"
       sodipodi:cy="9"
       sodipodi:rx="1"
       sodipodi:ry="1"
       d="M 7,9 C 7,9.5522847 6.5522847,10 6,10 5.4477153,10 5,9.5522847 5,9 5,8.4477153 5.4477153,8 6,8 6.5522847,8 7,8.4477153 7,9 z"
       transform="translate(0,27.449974)" />
    <path
       transform="translate(3,27.449974)"
       d="M 7,9 C 7,9.5522847 6.5522847,10 6,10 5.4477153,10 5,9.5522847 5,9 5,8.4477153 5.4477153,8 6,8 6.5522847,8 7,8.4477153 7,9 z"
       sodipodi:ry="1"
       sodipodi:rx="1"
       sodipodi:cy="9"
       sodipodi:cx="6"
       id="path3757"
       style="fill:#333;fill-opacity:1;fill-rule:nonzero;stroke:none"
       sodipodi:type="arc" />
    <path
       sodipodi:type="arc"
       style="fill:#333;fill-opacity:1;fill-rule:nonzero;stroke:none"
       id="path3759"
       sodipodi:cx="6"
       sodipodi:cy="9"
       sodipodi:rx="1"
       sodipodi:ry="1"
       d="M 7,9 C 7,9.5522847 6.5522847,10 6,10 5.4477153,10 5,9.5522847 5,9 5,8.4477153 5.4477153,8 6,8 6.5522847,8 7,8.4477153 7,9 z"
       transform="translate(6,27.449974)" />
    <path
       id="path35543-6-4"
       d="m 18.0187,41.142296 c -0.21053,0 -0.420592,0.01083 -0.626149,0.02977 -0.362154,2.628531 -1.027289,2.568891 -2.772934,0.894496 -0.370803,0.219554 -0.693604,0.490497 -1.013762,0.77523 1.26235,2.316124 0.675679,2.644745 -1.699542,2.325687 -0.169566,0.390019 -0.294557,0.798005 -0.387613,1.222477 2.380521,1.159914 2.153133,1.694584 0,2.862383 0.09303,0.424475 0.218047,0.832459 0.387613,1.222479 2.589721,-0.494104 2.729173,0.159911 1.699542,2.325688 0.320158,0.28473 0.642959,0.555674 1.013762,0.775229 1.813426,-1.945424 2.313801,-1.471814 2.772934,0.894495 C 17.59811,54.489307 17.80817,54.5 18.0187,54.5 c 0.210527,0 0.420588,-0.01083 0.626146,-0.02977 0.362154,-2.62853 1.027289,-2.568891 2.772934,-0.894495 0.370803,-0.219555 0.693605,-0.490498 1.013762,-0.775229 -1.262351,-2.316126 -0.675678,-2.644747 1.699542,-2.325688 0.169567,-0.39002 0.294559,-0.798004 0.387616,-1.222478 -2.380525,-1.159913 -2.153137,-1.694584 0,-2.862382 -0.09303,-0.424474 -0.218048,-0.83246 -0.387616,-1.222479 -2.58972,0.494103 -2.729173,-0.159912 -1.699542,-2.325687 -0.320157,-0.284733 -0.642959,-0.555676 -1.013762,-0.77523 -1.813425,1.945425 -2.3138,1.471812 -2.772935,-0.894495 -0.205557,-0.01908 -0.415619,-0.02976 -0.626145,-0.02976 z m 0,3.816514 c 1.580847,0 2.862384,1.281537 2.862384,2.862385 0,1.580847 -1.281537,2.862385 -2.862384,2.862385 -1.58085,0 -2.862387,-1.281538 -2.862387,-2.862385 0,-1.580848 1.281538,-2.862385 2.862387,-2.862385 z"
       style="color:#000000;fill:#333333;fill-opacity:1;fill-rule:nonzero;stroke:none;marker:none;visibility:visible;display:inline;overflow:visible;enable-background:accumulate"
       inkscape:connector-curvature="0"
       sodipodi:nodetypes="sccccccccccsccccccccccssssss" />
  </g>
</svg>
