<?xml version="1.0" encoding="UTF-8" standalone="no"?>
<!-- Created with Inkscape (http://www.inkscape.org/) -->

<svg
   xmlns:dc="http://purl.org/dc/elements/1.1/"
   xmlns:cc="http://creativecommons.org/ns#"
   xmlns:rdf="http://www.w3.org/1999/02/22-rdf-syntax-ns#"
   xmlns:svg="http://www.w3.org/2000/svg"
   xmlns="http://www.w3.org/2000/svg"
   xmlns:sodipodi="http://sodipodi.sourceforge.net/DTD/sodipodi-0.dtd"
   xmlns:inkscape="http://www.inkscape.org/namespaces/inkscape"
   width="36"
   height="36"
   id="svg2985"
   version="1.1"
   inkscape:version="0.48.4 r9939"
   sodipodi:docname="wm-settings-general-dark_36.svg">
  <defs
     id="defs2987" />
  <sodipodi:namedview
     id="base"
     pagecolor="#777777"
     bordercolor="#666666"
     borderopacity="1.0"
     inkscape:pageopacity="0.46666667"
     inkscape:pageshadow="2"
     inkscape:zoom="31.112698"
     inkscape:cx="12.728182"
     inkscape:cy="16.60068"
     inkscape:current-layer="layer1"
     showgrid="true"
     inkscape:document-units="px"
     inkscape:grid-bbox="true"
     inkscape:window-width="1301"
     inkscape:window-height="744"
     inkscape:window-x="65"
     inkscape:window-y="24"
     inkscape:window-maximized="1">
    <inkscape:grid
       type="xygrid"
       id="grid2982"
       empspacing="5"
       visible="true"
       enabled="true"
       snapvisiblegridlinesonly="true" />
  </sodipodi:namedview>
  <metadata
     id="metadata2990">
    <rdf:RDF>
      <cc:Work
         rdf:about="">
        <dc:format>image/svg+xml</dc:format>
        <dc:type
           rdf:resource="http://purl.org/dc/dcmitype/StillImage" />
        <dc:title />
      </cc:Work>
    </rdf:RDF>
  </metadata>
  <g
     id="layer1"
     inkscape:label="Layer 1"
     inkscape:groupmode="layer"
     transform="translate(0,-28)">
    <rect
       style="fill:none;stroke:#333333;stroke-width:2;stroke-miterlimit:4;stroke-opacity:1;stroke-dasharray:none"
       id="rect2984"
       width="30"
       height="24"
       x="3"
       y="34"
       rx="3"
       ry="3" />
    <path
       id="path35543-6-4"
       d="m 18,39.000001 c -0.220653,0 -0.440815,0.0113 -0.656256,0.0312 -0.379569,2.754922 -1.076686,2.692414 -2.90627,0.937506 -0.388632,0.230113 -0.726955,0.514084 -1.062507,0.812507 1.323049,2.427494 0.708168,2.771917 -1.781263,2.437516 -0.177721,0.408774 -0.308721,0.836377 -0.406252,1.28126 2.494986,1.215688 2.256664,1.776067 0,3.00002 0.0975,0.444884 0.228531,0.872486 0.406252,1.281259 2.714245,-0.517862 2.860403,0.167602 1.781263,2.437517 0.335552,0.298423 0.673875,0.582394 1.062507,0.812506 1.900624,-2.038969 2.425059,-1.542583 2.90627,0.937507 0.215442,0.02 0.435603,0.0312 0.656256,0.0312 0.220651,0 0.440812,-0.0113 0.656254,-0.0312 0.379568,-2.754921 1.076686,-2.692415 2.906269,-0.937507 0.388633,-0.230112 0.726957,-0.514083 1.062509,-0.812506 -1.323051,-2.427494 -0.708168,-2.771918 1.781263,-2.437517 0.17772,-0.408773 0.308721,-0.836375 0.406254,-1.281259 -2.494991,-1.215688 -2.256669,-1.776067 0,-3.00002 -0.0975,-0.444883 -0.228533,-0.872486 -0.406256,-1.28126 -2.714244,0.517862 -2.860402,-0.167601 -1.781262,-2.437516 -0.335552,-0.298423 -0.673875,-0.582394 -1.062508,-0.812507 -1.900621,2.038971 -2.425058,1.542583 -2.90627,-0.937505 -0.215441,-0.02 -0.435603,-0.0312 -0.656253,-0.0312 z m 0,4.000028 c 1.656861,0 3.00002,1.343159 3.00002,3.000021 0,1.656862 -1.343159,3.000021 -3.00002,3.000021 -1.656863,0 -3.000022,-1.343159 -3.000022,-3.000021 0,-1.656862 1.34316,-3.000021 3.000022,-3.000021 z"
       style="color:#000000;fill:#333333;fill-opacity:1;fill-rule:nonzero;stroke:none;marker:none;visibility:visible;display:inline;overflow:visible;enable-background:accumulate"
       inkscape:connector-curvature="0"
       sodipodi:nodetypes="sccccccccccsccccccccccssssss" />
  </g>
</svg>
